<svg width="119" height="118" viewBox="0 0 119 118" fill="none" xmlns="http://www.w3.org/2000/svg">
<rect x="0.969727" width="117.326" height="117.326" rx="58.663" fill="#00524D"/>
<path d="M100.155 37.5166C100.786 38.0432 101.044 38.7807 101.149 39.5754C101.09 40.0681 100.929 40.5279 100.771 40.9968C100.824 41.0087 100.878 41.0206 100.933 41.0329C102.157 41.3102 103.302 41.6445 104.434 42.1892C104.493 42.2176 104.552 42.246 104.613 42.2752C106.191 43.0442 107.182 43.9719 107.778 45.6422C108.056 46.5541 108.234 47.6821 107.878 48.5987C107.64 49.0282 107.289 49.3081 106.866 49.5463C106.56 49.6209 106.282 49.6102 105.967 49.5995C105.841 49.8514 105.844 50 105.881 50.2809C105.986 50.4249 105.986 50.4249 106.121 50.563C107.103 51.6354 106.868 53.7839 106.818 55.1359C106.586 60.0779 106.586 60.0779 105.013 61.6305C104.922 61.7208 104.922 61.7208 104.829 61.8128C104.783 61.8581 104.736 61.9033 104.689 61.9499C104.726 62.0307 104.763 62.1114 104.802 62.1946C104.946 62.5084 105.09 62.8223 105.235 63.1361C105.3 63.2789 105.366 63.4216 105.432 63.5643C105.785 64.3308 106.137 65.0977 106.482 65.8676C106.957 66.926 107.433 67.9817 107.963 69.0141C108.001 69.0897 108.039 69.1652 108.079 69.243C108.365 69.7896 108.723 70.2508 109.118 70.723C109.178 70.7997 109.237 70.8764 109.299 70.9555C109.442 71.1546 109.442 71.1546 109.629 71.234C109.629 71.3464 109.629 71.4589 109.629 71.5747C109.004 71.6011 108.383 71.5611 107.761 71.5108C107.643 71.5029 107.643 71.5029 107.522 71.4949C107.447 71.4883 107.372 71.4817 107.295 71.4749C107.228 71.4695 107.161 71.4642 107.092 71.4587C106.835 71.3845 106.731 71.2694 106.563 71.0637C106.447 70.8485 106.447 70.8485 106.341 70.6002C106.3 70.5048 106.259 70.4095 106.217 70.3113C106.173 70.2054 106.128 70.0995 106.084 69.9936C106.036 69.882 105.989 69.7703 105.941 69.6587C105.778 69.2758 105.617 68.8921 105.456 68.5084C105.393 68.3597 105.33 68.211 105.268 68.0624C104.846 67.0584 104.426 66.0535 104.007 65.0482C103.905 64.8041 103.803 64.56 103.701 64.316C103.491 63.8113 103.281 63.3066 103.071 62.8017C102.908 64.7879 103.026 66.7717 103.24 68.7492C103.454 70.7871 103.454 70.7871 103.156 71.234C102.766 71.3639 102.372 71.3547 101.963 71.3724C101.834 71.379 101.834 71.379 101.703 71.3857C101.62 71.3895 101.537 71.3932 101.452 71.397C101.339 71.4022 101.339 71.4022 101.223 71.4076C101.027 71.4044 101.027 71.4044 100.771 71.3192C100.736 70.3612 100.844 69.4322 100.957 68.4828C100.976 68.3182 100.996 68.1537 101.015 67.9891C101.064 67.5596 101.115 67.1302 101.166 66.7008C101.218 66.2611 101.269 65.8214 101.32 65.3817C101.42 64.5216 101.521 63.6616 101.623 62.8017C101.37 62.8298 101.117 62.8579 100.856 62.8868C100.769 63.1703 100.685 63.4543 100.601 63.7386C100.576 63.8188 100.576 63.8188 100.551 63.9006C100.103 65.3617 99.9134 66.8309 99.8189 68.3539C99.7769 68.9393 99.7072 69.4565 99.307 69.9138C99.2561 69.956 99.2051 69.9981 99.1527 70.0416C99.1895 70.1297 99.1895 70.1297 99.2272 70.2196C99.6202 71.2143 99.6202 71.2143 99.4934 71.7451C99.3075 71.9798 99.1636 72.1229 98.8971 72.2561C96.8233 72.3972 93.6036 72.4545 91.7424 71.3192C91.5769 71.1585 91.4529 70.9957 91.3165 70.8081C91.2603 70.8081 91.2041 70.8081 91.1462 70.8081C91.1892 70.8679 91.2323 70.9276 91.2766 70.9891C91.7856 71.7324 91.7856 71.7324 91.8063 72.123C91.7424 72.4265 91.7424 72.4265 91.5454 72.6341C89.6872 73.7145 85.1196 73.26 83.0545 72.8523C82.8842 72.682 82.8842 72.682 82.8309 72.4531C82.9164 72.0001 83.1962 71.8287 83.5656 71.5747C84.2431 71.1511 84.9485 70.779 85.6833 70.4651C85.8842 70.3795 85.8842 70.3795 86.1208 70.2119C86.1067 70.1521 86.0926 70.0922 86.078 70.0305C85.1737 66.1719 84.381 61.3007 86.5733 57.7178C87.9499 55.6544 89.883 54.3046 92.3162 53.811C92.6358 53.7674 92.9471 53.7671 93.2686 53.7737C93.3977 53.7752 93.5269 53.7767 93.656 53.7781C93.8579 53.7807 94.0598 53.7838 94.2616 53.7877C94.4576 53.7913 94.6536 53.7933 94.8496 53.795C94.9403 53.7974 94.9403 53.7974 95.0327 53.7998C95.3629 53.8021 95.3629 53.8021 95.6526 53.6599C96.005 53.1208 95.8599 52.3279 95.7381 51.7352C95.7261 51.6791 95.7141 51.623 95.7017 51.5652C95.6896 51.5068 95.6775 51.4485 95.6651 51.3884C95.6356 51.2463 95.6055 51.1043 95.5753 50.9623C95.4944 50.9632 95.4134 50.9641 95.33 50.965C91.5966 51.0025 91.5966 51.0025 90.4739 50.7056C89.9363 50.5851 89.3982 50.5915 88.8494 50.5866C88.7291 50.585 88.6087 50.5832 88.4884 50.5814C88.1682 50.5769 87.8479 50.5732 87.5277 50.5698C87.2264 50.5665 86.9251 50.5622 86.6238 50.5581C85.7446 50.5464 84.8654 50.5362 83.9861 50.5258C81.0374 50.4889 81.0374 50.4889 78.0292 50.4512C78.0292 56.7193 78.0292 62.9873 78.0292 69.4453C77.3546 69.4453 76.68 69.4453 75.985 69.4453C75.958 66.9881 75.9366 64.5308 75.9241 62.0735C75.9226 61.7825 75.9211 61.4916 75.9195 61.2007C75.9192 61.1428 75.9189 61.0849 75.9185 61.0253C75.9134 60.0908 75.904 59.1564 75.893 58.222C75.8818 57.2613 75.8753 56.3007 75.8728 55.34C75.8712 54.8011 75.8676 54.2624 75.8589 53.7236C75.8507 53.2152 75.8483 52.7071 75.8501 52.1986C75.8498 52.0132 75.8475 51.8277 75.8428 51.6423C75.8089 50.2067 76.2013 49.3744 77.1774 48.3219C77.3478 48.1515 77.3478 48.1515 77.5058 48.1306C77.6026 48.1308 77.6026 48.1308 77.7013 48.131C77.7754 48.1308 77.8494 48.1306 77.9257 48.1303C78.0479 48.1312 78.0479 48.1312 78.1725 48.1322C78.2581 48.1322 78.3437 48.1321 78.4318 48.1321C78.7157 48.1322 78.9996 48.1335 79.2835 48.1349C79.48 48.1352 79.6764 48.1354 79.8729 48.1356C80.3907 48.1363 80.9085 48.1379 81.4263 48.1398C81.9544 48.1416 82.4825 48.1423 83.0106 48.1432C84.0474 48.145 85.0841 48.1479 86.1208 48.1515C86.1208 47.6456 86.1208 47.1396 86.1208 46.6184C84.7717 46.6184 83.4225 46.6184 82.0324 46.6184C82.0324 44.3416 82.0324 42.0649 82.0324 39.7192C85.3636 39.6212 85.3636 39.6212 86.7763 39.6257C86.9326 39.6258 87.0888 39.626 87.2451 39.626C87.6447 39.6264 88.0443 39.6272 88.4439 39.6281C88.9296 39.6292 89.4153 39.6296 89.9011 39.6301C90.6284 39.6309 91.3558 39.6325 92.0831 39.634C92.1112 40.8426 92.1393 42.0513 92.1683 43.2965C92.5337 43.0717 92.8991 42.8468 93.2756 42.6151C93.571 42.4615 93.8633 42.3136 94.1646 42.1733C94.2406 42.1374 94.3167 42.1016 94.3951 42.0647C95.962 41.3375 95.962 41.3375 96.427 41.3375C96.3994 41.2906 96.3718 41.2436 96.3433 41.1953C96.2424 40.9641 96.2347 40.7985 96.2341 40.547C96.2338 40.4612 96.2336 40.3755 96.2334 40.2871C96.2341 40.1981 96.2347 40.109 96.2354 40.0173C96.2347 39.9282 96.2341 39.8392 96.2334 39.7474C96.2336 39.6617 96.2338 39.5759 96.2341 39.4876C96.2343 39.4095 96.2345 39.3314 96.2347 39.2509C96.2577 39.0284 96.3144 38.8884 96.427 38.6971C96.4833 38.6971 96.5395 38.6971 96.5974 38.6971C96.6132 38.6408 96.629 38.5846 96.6453 38.5267C96.9865 37.8146 97.5213 37.4263 98.237 37.1373C98.9555 37.0056 99.5452 37.1097 100.155 37.5166ZM88.4206 46.5332C88.4206 47.0672 88.4206 47.6013 88.4206 48.1515C88.4768 48.1515 88.533 48.1515 88.5909 48.1515C88.6135 48.0775 88.6362 48.0035 88.6595 47.9273C88.6895 47.8291 88.7196 47.7309 88.7506 47.6298C88.7803 47.533 88.8099 47.4361 88.8405 47.3364C88.9244 47.0674 89.0119 46.8001 89.102 46.5332C88.8771 46.5332 88.6522 46.5332 88.4206 46.5332ZM91.4869 60.5871C90.9312 62.0763 90.7643 63.4918 90.7815 65.0773C90.7842 65.3277 90.785 65.578 90.7855 65.8284C90.7863 65.99 90.7872 66.1516 90.7882 66.3131C90.7885 66.3868 90.7889 66.4604 90.7893 66.5363C90.7944 66.9733 90.8285 67.3944 90.8907 67.827C91.1121 67.5536 91.2621 67.2698 91.4147 66.9533C91.4399 66.9011 91.4652 66.8489 91.4912 66.7952C91.5736 66.6247 91.6554 66.454 91.7371 66.2832C91.7938 66.1651 91.8505 66.0469 91.9073 65.9288C92.0519 65.6271 92.1959 65.325 92.3396 65.0228C92.4211 64.8515 92.503 64.6803 92.5849 64.5091C92.7311 64.2031 92.8757 63.8964 93.02 63.5895C93.0645 63.4964 93.109 63.4033 93.1548 63.3073C93.1946 63.2217 93.2345 63.1361 93.2756 63.0479C93.3107 62.9732 93.3458 62.8986 93.382 62.8217C93.4708 62.6205 93.4708 62.6205 93.3607 62.3758C93.1774 62.2474 93.1774 62.2474 92.9562 62.1309C92.2834 61.7414 91.909 61.2203 91.4869 60.5871ZM94.2125 64.3348C93.8252 65.4182 93.5005 66.5131 93.2064 67.6247C93.1815 67.7178 93.1815 67.7178 93.1562 67.8129C92.9676 68.5226 92.7945 69.2303 92.6793 69.9564C93.2852 69.7812 93.8774 69.5814 94.468 69.3602C94.4118 69.267 94.3556 69.1739 94.2977 69.078C93.8714 68.209 94.1627 66.9259 94.2125 65.9798C94.2207 65.8199 94.2289 65.66 94.2371 65.5002C94.257 65.1117 94.2773 64.7232 94.2977 64.3348C94.2696 64.3348 94.2414 64.3348 94.2125 64.3348Z" fill="#4F8BFB"/>
<path d="M103.225 49.9881C103.323 49.9886 103.42 49.9891 103.521 49.9897C104.416 50.0062 105.188 50.0918 105.881 50.7068C106.543 51.6415 106.52 52.7658 106.509 53.8636C106.509 53.9698 106.509 53.9698 106.509 54.0781C106.48 59.6252 106.48 59.6252 104.954 61.2712C103.095 62.9924 99.5418 62.8029 97.1934 62.7165C93.444 62.5407 93.444 62.5407 92.2852 61.3164C92.0097 60.9752 91.8503 60.6715 91.7422 60.2464C91.7804 59.9721 91.8846 59.7994 92.0509 59.581C92.1106 59.5011 92.1106 59.5011 92.1714 59.4196C92.6248 58.8894 93.0591 58.5193 93.6852 58.2075C93.7554 58.1715 93.8255 58.1355 93.8977 58.0984C94.377 57.8555 94.8641 57.6338 95.3568 57.4196C96.775 56.803 97.6864 56.1935 98.307 54.7477C98.4799 54.2915 98.5888 53.816 98.7081 53.3437C99.0274 52.115 99.5677 51.2502 100.67 50.6003C101.502 50.1215 102.268 49.9794 103.225 49.9881Z" fill="#364BB1"/>
<path d="M86.7763 39.6256C86.9326 39.6258 87.0888 39.6259 87.2451 39.626C87.6447 39.6263 88.0443 39.6272 88.4439 39.6281C88.9296 39.6292 89.4153 39.6295 89.9011 39.63C90.6284 39.6308 91.3558 39.6325 92.0831 39.634C92.0831 40.8988 92.0831 42.1637 92.0831 43.4669C92.055 43.4669 92.0269 43.4669 91.9979 43.4669C91.9979 42.2301 91.9979 40.9934 91.9979 39.7191C91.7262 39.7253 91.4544 39.7314 91.1745 39.7378C88.1826 39.8024 85.1955 39.8112 82.2028 39.8043C82.2028 41.9967 82.2028 44.1891 82.2028 46.448C83.5238 46.448 84.8449 46.448 86.206 46.448C86.206 47.0101 86.206 47.5723 86.206 48.1515C86.9087 48.1515 87.6114 48.1515 88.3354 48.1515C88.3354 47.5612 88.3354 46.971 88.3354 46.3628C88.6446 46.3628 88.9538 46.3628 89.2723 46.3628C89.2442 46.419 89.2161 46.4752 89.1872 46.5332C88.9342 46.5332 88.6812 46.5332 88.4206 46.5332C88.4206 47.0672 88.4206 47.6013 88.4206 48.1515C88.4768 48.1515 88.533 48.1515 88.5909 48.1515C88.5942 48.2503 88.5942 48.2503 88.5976 48.3511C88.6328 48.9987 88.6804 49.5511 89.1818 50.0041C89.35 50.1327 89.5203 50.2513 89.6982 50.366C89.7825 50.4223 89.8668 50.4785 89.9537 50.5364C89.2793 50.5385 88.6049 50.5399 87.9305 50.5408C87.6165 50.5412 87.3026 50.5418 86.9886 50.5428C84.0012 50.5518 81.017 50.4939 78.0292 50.4512C78.0292 56.7193 78.0292 62.9873 78.0292 69.4453C77.3546 69.4453 76.68 69.4453 75.985 69.4453C75.958 66.988 75.9366 64.5308 75.9241 62.0734C75.9226 61.7825 75.9211 61.4916 75.9195 61.2007C75.9192 61.1428 75.9189 61.0849 75.9185 61.0252C75.9134 60.0908 75.904 59.1564 75.893 58.222C75.8818 57.2613 75.8753 56.3007 75.8728 55.34C75.8712 54.8011 75.8676 54.2624 75.8589 53.7235C75.8507 53.2152 75.8483 52.707 75.8501 52.1986C75.8498 52.0131 75.8475 51.8277 75.8428 51.6423C75.8089 50.2067 76.2013 49.3744 77.1774 48.3218C77.3478 48.1515 77.3478 48.1515 77.5058 48.1305C77.6026 48.1308 77.6026 48.1308 77.7013 48.131C77.7754 48.1308 77.8494 48.1305 77.9257 48.1303C78.0479 48.1312 78.0479 48.1312 78.1725 48.1322C78.2581 48.1321 78.3437 48.1321 78.4318 48.1321C78.7157 48.1322 78.9996 48.1335 79.2835 48.1349C79.48 48.1352 79.6764 48.1354 79.8729 48.1356C80.3907 48.1362 80.9085 48.1379 81.4263 48.1398C81.9544 48.1415 82.4825 48.1423 83.0106 48.1432C84.0474 48.145 85.0841 48.1479 86.1208 48.1515C86.1208 47.6455 86.1208 47.1396 86.1208 46.6183C84.7717 46.6183 83.4225 46.6183 82.0324 46.6183C82.0324 44.3416 82.0324 42.0649 82.0324 39.7191C85.3636 39.6212 85.3636 39.6212 86.7763 39.6256Z" fill="#709215"/>
<path d="M94.7237 62.8016C94.9365 62.8085 95.1469 62.8207 95.3592 62.8359C96.3852 62.9011 97.4117 62.9163 98.4394 62.9347C98.6335 62.9384 98.8276 62.9421 99.0217 62.9459C99.4913 62.9549 99.9608 62.9636 100.43 62.972C100.372 63.2765 100.295 63.5671 100.204 63.8634C99.7517 65.3654 99.5701 66.9484 99.474 68.5103C99.4437 68.9334 99.3867 69.2487 99.1528 69.6157C98.3429 70.0206 96.7257 69.606 95.8629 69.4613C95.7818 69.4482 95.7007 69.4352 95.6171 69.4218C95.1572 69.3382 94.8273 69.2394 94.4681 68.9343C94.3578 68.6033 94.3688 68.29 94.37 67.9451C94.3702 67.8704 94.3703 67.7956 94.3705 67.7186C94.3773 66.8456 94.4303 65.9756 94.4875 65.1046C94.5058 64.8246 94.523 64.5445 94.5402 64.2644C94.5515 64.0861 94.5629 63.9079 94.5743 63.7296C94.5794 63.6459 94.5846 63.5623 94.5899 63.4761C94.5976 63.3616 94.5976 63.3616 94.6054 63.2448C94.6097 63.1774 94.6141 63.1101 94.6186 63.0408C94.6385 62.8868 94.6385 62.8868 94.7237 62.8016Z" fill="#1B2659"/>
<path d="M100.155 37.5166C100.786 38.0432 101.044 38.7807 101.149 39.5754C101.091 40.0627 100.98 40.5514 100.771 40.9968C100.488 41.1089 100.202 41.088 99.9016 41.0813C99.7457 41.0789 99.7457 41.0789 99.5866 41.0765C99.4768 41.0748 99.367 41.0731 99.2538 41.0713C98.353 41.0629 97.553 41.1139 96.6826 41.3375C96.5982 41.3375 96.5139 41.3375 96.427 41.3375C96.2663 41.0646 96.2348 40.862 96.2341 40.547C96.2338 40.4612 96.2336 40.3755 96.2334 40.2871C96.2341 40.1981 96.2347 40.109 96.2354 40.0173C96.2347 39.9282 96.2341 39.8392 96.2334 39.7474C96.2336 39.6617 96.2338 39.5759 96.2341 39.4876C96.2343 39.4095 96.2344 39.3314 96.2346 39.2509C96.2577 39.0284 96.3144 38.8884 96.427 38.6971C96.4833 38.6971 96.5395 38.6971 96.5974 38.6971C96.6132 38.6408 96.629 38.5846 96.6453 38.5267C96.9865 37.8146 97.5213 37.4263 98.237 37.1373C98.9555 37.0056 99.5452 37.1097 100.155 37.5166Z" fill="#F4D765"/>
<path d="M104.349 62.0351C104.845 63.0497 105.314 64.0739 105.769 65.1072C106.222 66.134 106.68 67.1576 107.164 68.1695C107.217 68.2796 107.27 68.3899 107.322 68.5002C107.79 69.4874 108.365 70.3723 109.034 71.234C108.713 71.2271 108.392 71.2175 108.07 71.2074C107.979 71.2055 107.888 71.2036 107.794 71.2016C107.706 71.1986 107.619 71.1955 107.528 71.1924C107.448 71.1902 107.367 71.188 107.284 71.1857C107.029 71.1408 106.969 71.1024 106.819 70.8933C106.723 70.6947 106.636 70.499 106.553 70.2951C106.528 70.234 106.502 70.1729 106.476 70.11C106.391 69.9064 106.307 69.7025 106.223 69.4986C106.164 69.3551 106.104 69.2117 106.044 69.0683C105.949 68.8403 105.854 68.6122 105.76 68.384C105.517 67.8006 105.272 67.2187 105.025 66.6372C104.989 66.5525 104.953 66.4678 104.916 66.3806C104.703 65.8803 104.703 65.8803 104.491 65.3802C104.08 64.415 103.685 63.4472 103.327 62.461C104.158 62.0351 104.158 62.0351 104.349 62.0351Z" fill="#1D2C74"/>
<path d="M101.538 41.5079C101.631 41.5312 101.631 41.5312 101.726 41.5551C102.615 41.7803 103.445 42.0887 104.274 42.4821C104.354 42.5198 104.433 42.5574 104.515 42.5962C105.066 42.8667 105.557 43.1903 106.052 43.5521C106.127 43.6031 106.203 43.654 106.281 43.7065C107.279 44.6511 107.74 46.0987 107.798 47.4436C107.781 48.0524 107.608 48.5277 107.195 48.98C106.858 49.2618 106.562 49.3015 106.13 49.2821C105.967 49.2589 105.967 49.2589 105.796 49.1737C105.842 48.2074 105.892 47.2423 105.967 46.2777C105.911 46.2496 105.854 46.2215 105.796 46.1925C105.712 47.4855 105.628 48.7785 105.541 50.1106C105.232 50.0263 104.923 49.942 104.604 49.8551C102.941 49.582 101.385 49.807 99.9692 50.7601C99.0273 51.5166 98.666 52.6543 98.3496 53.7751C97.9225 55.2811 97.9225 55.2811 97.4492 55.8173C97.3914 55.8916 97.3914 55.8916 97.3325 55.9674C96.6243 56.7859 95.4545 57.205 94.4841 57.6167C92.9395 58.2726 91.8459 59.0409 91.1975 60.6423C90.6199 62.137 90.534 63.6585 90.5394 65.2452C90.5395 65.3095 90.5396 65.3739 90.5396 65.4402C90.5407 66.2333 90.5574 67.0205 90.6159 67.8118C90.6473 68.2989 90.645 68.787 90.6459 69.275C90.6463 69.3663 90.6466 69.4575 90.647 69.5516C90.6469 69.636 90.6467 69.7204 90.6465 69.8074C90.6464 69.8834 90.6463 69.9593 90.6462 70.0376C90.6352 70.212 90.6352 70.212 90.5501 70.2971C90.4245 70.3051 90.2987 70.3071 90.1729 70.3068C90.0928 70.3068 90.0126 70.3068 89.93 70.3068C89.8429 70.3064 89.7558 70.3059 89.666 70.3055C89.5329 70.3053 89.5329 70.3053 89.3971 70.3051C89.1125 70.3046 88.8278 70.3035 88.5431 70.3025C88.3506 70.302 88.1582 70.3016 87.9657 70.3013C87.4927 70.3004 87.0198 70.2989 86.5468 70.2971C85.7871 68.1737 85.5984 65.9552 85.5886 63.7174C85.5879 63.6211 85.5879 63.6211 85.5872 63.5228C85.5738 61.0271 86.0539 58.9379 87.5689 56.9246C87.6115 56.8672 87.6541 56.8098 87.698 56.7506C88.9045 55.2356 90.9489 54.2574 92.8498 54.0287C93.6493 53.9757 94.4494 53.9927 95.2432 54.1019C95.4809 54.1195 95.6296 54.0678 95.8309 53.9435C96.2026 53.5585 96.1958 53.0932 96.1906 52.5843C96.1549 52.0973 96.0475 51.6215 95.9518 51.1434C95.8949 50.8548 95.8431 50.5656 95.7937 50.2756C95.7781 50.1846 95.7781 50.1846 95.7623 50.0917C95.6909 49.6569 95.6338 49.2212 95.5807 48.7837C95.5702 48.6976 95.5702 48.6976 95.5594 48.6098C95.5243 48.3224 95.4902 48.0349 95.458 47.7471C95.3391 46.7586 95.1436 45.7422 94.5533 44.9149C94.4971 44.8868 94.4409 44.8587 94.3829 44.8297C94.4036 44.8813 94.4242 44.9329 94.4455 44.9861C94.5846 45.3338 94.5846 45.3338 94.7236 45.6815C94.7506 45.7425 94.7775 45.8036 94.8053 45.8665C95.0398 46.4139 95.1591 46.9409 95.2453 47.5287C95.2594 47.6199 95.2734 47.711 95.2878 47.8049C95.4264 48.7399 95.5094 49.679 95.5754 50.6217C90.3686 50.6735 90.3686 50.6735 89.3576 49.8551C88.89 49.3356 88.8071 48.9655 88.8203 48.274C88.9648 46.6641 90.2881 45.2194 91.4574 44.2086C93.0539 42.9161 94.9546 42.0164 96.9382 41.5079C97.03 41.4787 97.1218 41.4495 97.2163 41.4194C98.584 41.0675 100.185 41.1439 101.538 41.5079Z" fill="#1B2659"/>
<path d="M86.7763 39.6257C86.9326 39.6259 87.0888 39.626 87.2451 39.6261C87.6447 39.6264 88.0443 39.6272 88.4439 39.6282C88.9296 39.6292 89.4153 39.6296 89.9011 39.6301C90.6284 39.6309 91.3558 39.6325 92.0831 39.634C92.0831 40.8989 92.0831 42.1637 92.0831 43.4669C92.055 43.4669 92.0269 43.4669 91.9979 43.4669C91.9979 42.2302 91.9979 40.9934 91.9979 39.7192C91.7262 39.7254 91.4544 39.7315 91.1745 39.7378C88.1826 39.8025 85.1955 39.8113 82.2028 39.8044C82.2028 41.9968 82.2028 44.1892 82.2028 46.448C83.5238 46.448 84.8449 46.448 86.206 46.448C86.206 47.0102 86.206 47.5724 86.206 48.1516C86.9087 48.1516 87.6114 48.1516 88.3354 48.1516C88.3354 47.5613 88.3354 46.971 88.3354 46.3629C88.6446 46.3629 88.9538 46.3629 89.2723 46.3629C89.2442 46.4191 89.2161 46.4753 89.1872 46.5332C88.9342 46.5332 88.6812 46.5332 88.4206 46.5332C88.4206 47.0673 88.4206 47.6013 88.4206 48.1516C88.4768 48.1516 88.533 48.1516 88.5909 48.1516C88.5909 48.3764 88.5909 48.6013 88.5909 48.833C88.5628 48.833 88.5347 48.833 88.5057 48.833C88.5057 48.6362 88.5057 48.4394 88.5057 48.2367C87.0826 48.21 85.6597 48.1926 84.2364 48.1862C83.5754 48.183 82.9146 48.1768 82.2537 48.1634C81.6771 48.1517 81.1008 48.1459 80.5241 48.1467C80.219 48.147 79.9146 48.1445 79.6097 48.135C79.2677 48.1245 78.9269 48.127 78.5848 48.1304C78.4855 48.1253 78.3863 48.1203 78.284 48.1151C77.7712 48.1311 77.4619 48.2668 77.1017 48.6262C76.2025 49.648 76.0684 50.5809 76.0895 51.8988C76.0882 52.0896 76.0863 52.2803 76.0839 52.471C76.0791 52.9836 76.0814 53.496 76.0852 54.0086C76.0879 54.5462 76.0838 55.0837 76.0805 55.6213C76.0758 56.5219 76.0752 57.4224 76.0778 58.323C76.0805 59.2498 76.0806 60.1765 76.0774 61.1032C76.0772 61.1605 76.077 61.2179 76.0768 61.2769C76.0758 61.5646 76.0748 61.8522 76.0737 62.1399C76.065 64.5183 76.065 66.8966 76.0702 69.275C76.6604 69.275 77.2507 69.275 77.8588 69.275C77.8587 69.1501 77.8585 69.0252 77.8583 68.8965C77.8559 67.2943 77.8544 65.6922 77.8535 64.09C77.8535 64.0259 77.8534 63.9619 77.8534 63.8959C77.8514 60.3989 77.8579 56.9025 77.9014 53.4058C77.9024 53.3238 77.9035 53.2419 77.9045 53.1574C77.9165 52.1986 77.9296 51.2397 77.944 50.2809C79.8418 50.2749 81.739 50.2892 83.6367 50.3126C83.9411 50.3164 84.2455 50.3199 84.5499 50.3233C86.3524 50.3432 88.1527 50.3737 89.9537 50.4513C89.9537 50.4794 89.9537 50.5075 89.9537 50.5365C89.2793 50.5385 88.6049 50.54 87.9305 50.5409C87.6165 50.5413 87.3026 50.5419 86.9886 50.5429C84.0012 50.5518 81.017 50.494 78.0292 50.4513C78.0292 56.7193 78.0292 62.9874 78.0292 69.4454C77.3546 69.4454 76.68 69.4454 75.985 69.4454C75.958 66.9881 75.9366 64.5309 75.9241 62.0735C75.9226 61.7826 75.9211 61.4917 75.9195 61.2008C75.9192 61.1429 75.9189 61.085 75.9185 61.0253C75.9134 60.0908 75.904 59.1564 75.893 58.222C75.8818 57.2614 75.8753 56.3008 75.8728 55.34C75.8712 54.8011 75.8676 54.2624 75.8589 53.7236C75.8507 53.2152 75.8483 52.7071 75.8501 52.1987C75.8498 52.0132 75.8475 51.8278 75.8428 51.6424C75.8089 50.2068 76.2013 49.3744 77.1774 48.3219C77.3478 48.1516 77.3478 48.1516 77.5058 48.1306C77.6026 48.1308 77.6026 48.1308 77.7013 48.1311C77.7754 48.1308 77.8494 48.1306 77.9257 48.1304C78.0479 48.1313 78.0479 48.1313 78.1725 48.1322C78.2581 48.1322 78.3437 48.1322 78.4318 48.1321C78.7157 48.1323 78.9996 48.1336 79.2835 48.1349C79.48 48.1352 79.6764 48.1355 79.8729 48.1356C80.3907 48.1363 80.9085 48.138 81.4263 48.1399C81.9544 48.1416 82.4825 48.1424 83.0106 48.1432C84.0474 48.1451 85.0841 48.148 86.1208 48.1516C86.1208 47.6456 86.1208 47.1397 86.1208 46.6184C84.7717 46.6184 83.4225 46.6184 82.0324 46.6184C82.0324 44.3417 82.0324 42.0649 82.0324 39.7192C85.3636 39.6212 85.3636 39.6212 86.7763 39.6257Z" fill="white"/>
<path d="M102.645 62.6313C102.646 62.7258 102.648 62.8204 102.65 62.9178C102.667 66.0531 102.667 66.0531 102.947 69.1708C102.995 69.516 102.998 69.8533 102.996 70.2012C102.997 70.2997 102.997 70.2997 102.997 70.4002C102.996 70.8825 102.996 70.8825 102.9 70.9785C102.761 70.9918 102.622 70.9998 102.482 71.0054C102.398 71.009 102.313 71.0125 102.227 71.0162C102.138 71.0196 102.049 71.0229 101.958 71.0264C101.869 71.0301 101.78 71.0337 101.688 71.0375C101.468 71.0466 101.247 71.0553 101.026 71.0636C101.077 70.1814 101.173 69.3087 101.281 68.432C101.329 68.0401 101.376 67.6481 101.423 67.256C101.433 67.1763 101.442 67.0966 101.452 67.0145C101.568 66.0503 101.67 65.0847 101.771 64.1188C101.778 64.056 101.784 63.9931 101.791 63.9283C101.809 63.76 101.826 63.5916 101.844 63.4232C101.873 63.1838 101.912 62.9519 101.963 62.7165C102.199 62.6656 102.403 62.6313 102.645 62.6313Z" fill="#1D2C74"/>
<path d="M93.787 62.5461C93.9837 62.6023 94.1805 62.6585 94.3832 62.7164C94.3334 63.1528 94.2335 63.5462 94.0871 63.9608C94.0438 64.0867 94.0006 64.2127 93.9573 64.3387C93.9347 64.404 93.9121 64.4694 93.8888 64.5368C93.5361 65.5593 93.2022 66.5813 92.9352 67.63C92.9115 67.7225 92.8879 67.8151 92.8634 67.9104C92.7623 68.3153 92.6696 68.7192 92.5952 69.1299C92.4258 70.0419 92.4258 70.0419 92.169 70.2927C91.7652 70.4977 91.4063 70.4987 90.9762 70.3822C90.7596 70.1656 90.8128 69.6608 90.8056 69.3669C90.8404 68.2948 91.4205 67.376 91.9122 66.4505C92.1708 65.9611 92.4079 65.4612 92.6464 64.9617C92.7658 64.7124 92.8866 64.4638 93.0071 64.215C93.2735 63.6616 93.5314 63.1046 93.787 62.5461Z" fill="#374AA5"/>
<path d="M100.154 37.5142C100.459 37.7709 100.701 38.0725 100.856 38.4415C100.814 38.568 100.814 38.568 100.771 38.697C100.743 38.6689 100.715 38.6408 100.686 38.6119C100.515 38.6104 100.344 38.6151 100.173 38.6222C100.065 38.6263 99.9581 38.6304 99.8475 38.6347C99.762 38.6382 99.762 38.6382 99.6748 38.6419C99.3828 38.6539 99.0907 38.6646 98.7986 38.6751C98.741 38.6772 98.6833 38.6792 98.624 38.6814C97.9484 38.7048 97.2735 38.7053 96.5977 38.697C96.7947 38.1444 97.1563 37.6925 97.6623 37.3875C98.5456 36.9774 99.3288 36.9696 100.154 37.5142Z" fill="#8A6139"/>
<path d="M100.857 40.0599C100.952 40.3413 100.933 40.4901 100.819 40.7626C100.783 40.8528 100.783 40.8528 100.745 40.9449C100.726 40.9901 100.706 41.0354 100.686 41.082C100.61 41.0806 100.534 41.0793 100.456 41.0779C100.168 41.0735 99.8801 41.0703 99.5919 41.0679C99.4684 41.0667 99.345 41.0649 99.2215 41.0627C98.4309 41.0487 97.7086 41.1048 96.9367 41.2822C96.683 41.3375 96.683 41.3375 96.4275 41.3375C96.2651 41.0639 96.2381 40.8657 96.2465 40.5496C96.2488 40.4357 96.2488 40.4357 96.2511 40.3194C96.2531 40.2619 96.2551 40.2043 96.2571 40.1451C96.3836 40.2294 96.3836 40.2294 96.5126 40.3154C96.7499 40.3311 96.9785 40.3372 97.2157 40.335C97.2851 40.335 97.3546 40.335 97.4261 40.3349C97.5734 40.3347 97.7207 40.334 97.868 40.3329C98.0908 40.3314 98.3136 40.3312 98.5364 40.3312C99.7492 40.4023 99.7492 40.4023 100.857 40.0599Z" fill="#865F3B"/>
<path d="M109.474 75.0295C109.474 78.1254 85.8308 97.0209 57.7294 97.0209C29.628 97.0209 5.55371 82.0062 5.55371 78.9103C5.55371 75.8144 29.628 78.9103 57.7294 78.9103C85.8308 78.9103 109.474 71.9335 109.474 75.0295Z" fill="#033734"/>
<path d="M29.4367 46.1407C30.0673 46.6673 30.3252 47.4048 30.4302 48.1995C30.3717 48.6922 30.2102 49.1519 30.0522 49.6209C30.1057 49.6328 30.1591 49.6447 30.2142 49.657C31.4378 49.9343 32.583 50.2686 33.7148 50.8133C33.7739 50.8417 33.8331 50.87 33.8941 50.8993C35.4727 51.6683 36.4634 52.596 37.0589 54.2663C37.3371 55.1781 37.5155 56.3062 37.159 57.2228C36.9211 57.6523 36.5698 57.9322 36.1476 58.1703C35.8414 58.245 35.5628 58.2343 35.2479 58.2236C35.122 58.4755 35.1256 58.6241 35.1627 58.905C35.2677 59.049 35.2677 59.049 35.4023 59.1871C36.3845 60.2595 36.1489 62.408 36.0997 63.76C35.8676 68.702 35.8676 68.702 34.294 70.2546C34.2028 70.3448 34.2028 70.3448 34.1098 70.4369C34.0638 70.4821 34.0177 70.5274 33.9703 70.574C34.0075 70.6547 34.0446 70.7355 34.0829 70.8187C34.2274 71.1325 34.3717 71.4463 34.5161 71.7602C34.5817 71.9029 34.6474 72.0457 34.7131 72.1884C35.0659 72.9549 35.4178 73.7218 35.763 74.4917C36.2378 75.55 36.7146 76.6058 37.2442 77.6382C37.2823 77.7137 37.3205 77.7893 37.3598 77.8671C37.6467 78.4137 38.0039 78.8749 38.3994 79.347C38.459 79.4238 38.5185 79.5005 38.5799 79.5796C38.7229 79.7786 38.7229 79.7786 38.9105 79.8581C38.9105 79.9705 38.9105 80.083 38.9105 80.1988C38.2854 80.2251 37.6647 80.1852 37.0419 80.1349C36.9239 80.127 36.9239 80.127 36.8035 80.119C36.7286 80.1124 36.6536 80.1058 36.5765 80.099C36.5093 80.0936 36.4421 80.0883 36.3729 80.0828C36.116 80.0086 36.0127 79.8935 35.8441 79.6877C35.7282 79.4726 35.7282 79.4726 35.6226 79.2243C35.5816 79.1289 35.5406 79.0336 35.4984 78.9353C35.4539 78.8295 35.4095 78.7236 35.365 78.6177C35.3175 78.5061 35.2699 78.3944 35.2222 78.2828C35.0591 77.8999 34.898 77.5162 34.7369 77.1325C34.6743 76.9838 34.6117 76.8351 34.5492 76.6864C34.1269 75.6825 33.7069 74.6776 33.288 73.6723C33.1863 73.4282 33.0845 73.1841 32.9827 72.9401C32.7722 72.4354 32.5619 71.9306 32.352 71.4257C32.1894 73.412 32.3069 75.3958 32.5209 77.3733C32.7351 79.4112 32.7351 79.4112 32.4371 79.8581C32.0475 79.988 31.653 79.9788 31.2447 79.9965C31.1156 80.0031 31.1156 80.0031 30.9838 80.0098C30.9013 80.0135 30.8187 80.0173 30.7336 80.0211C30.6203 80.0263 30.6203 80.0263 30.5047 80.0316C30.3078 80.0284 30.3078 80.0284 30.0522 79.9433C30.0176 78.9853 30.1254 78.0563 30.2386 77.1069C30.2577 76.9423 30.2768 76.7778 30.2958 76.6132C30.3457 76.1837 30.3963 75.7543 30.4471 75.3249C30.4989 74.8852 30.55 74.4455 30.6012 74.0058C30.7014 73.1457 30.8025 72.2857 30.904 71.4257C30.651 71.4538 30.398 71.482 30.1374 71.5109C30.0505 71.7944 29.966 72.0784 29.8819 72.3627C29.8572 72.4429 29.8572 72.4429 29.8321 72.5247C29.3844 73.9858 29.1947 75.455 29.1001 76.978C29.0581 77.5633 28.9884 78.0806 28.5883 78.5379C28.5373 78.58 28.4864 78.6222 28.4339 78.6656C28.4708 78.7537 28.4708 78.7537 28.5084 78.8436C28.9014 79.8384 28.9014 79.8384 28.7746 80.3691C28.5888 80.6039 28.4448 80.747 28.1784 80.8802C26.1046 81.0213 22.8849 81.0785 21.0237 79.9433C20.8582 79.7826 20.7342 79.6198 20.5978 79.4322C20.5416 79.4322 20.4853 79.4322 20.4274 79.4322C20.4705 79.4919 20.5135 79.5517 20.5579 79.6132C21.0669 80.3565 21.0669 80.3565 21.0875 80.7471C21.0237 81.0505 21.0237 81.0505 20.8267 81.2582C18.9684 82.3385 14.4008 81.884 12.3358 81.4764C12.1654 81.3061 12.1654 81.3061 12.1122 81.0772C12.1977 80.6241 12.4774 80.4528 12.8468 80.1988C13.5243 79.7752 14.2298 79.4031 14.9646 79.0892C15.1654 79.0036 15.1654 79.0036 15.4021 78.836C15.3879 78.7761 15.3738 78.7163 15.3592 78.6546C14.4549 74.7959 13.6622 69.9248 15.8546 66.3418C17.2312 64.2785 19.1642 62.9287 21.5975 62.4351C21.917 62.3915 22.2283 62.3912 22.5498 62.3978C22.679 62.3993 22.8081 62.4008 22.9373 62.4022C23.1392 62.4048 23.341 62.4078 23.5429 62.4118C23.7389 62.4154 23.9349 62.4174 24.1309 62.4191C24.2215 62.4215 24.2215 62.4215 24.314 62.4239C24.6441 62.4262 24.6441 62.4262 24.9338 62.284C25.2863 61.7449 25.1411 60.952 25.0194 60.3593C25.0074 60.3032 24.9953 60.2471 24.983 60.1893C24.9709 60.1309 24.9588 60.0726 24.9463 60.0125C24.9168 59.8704 24.8867 59.7284 24.8565 59.5864C24.7756 59.5873 24.6947 59.5882 24.6113 59.5891C20.8778 59.6266 20.8778 59.6266 19.7552 59.3297C19.2176 59.2092 18.6794 59.2156 18.1307 59.2107C18.0103 59.209 17.89 59.2073 17.7697 59.2055C17.4494 59.2009 17.1292 59.1973 16.8089 59.1939C16.5076 59.1905 16.2064 59.1863 15.9051 59.1822C15.0259 59.1705 14.1466 59.1603 13.2674 59.1499C10.3187 59.113 10.3187 59.113 7.31044 59.0753C7.31044 65.3434 7.31044 71.6114 7.31044 78.0694C6.63585 78.0694 5.96127 78.0694 5.26624 78.0694C5.23921 75.6122 5.21789 73.1549 5.20534 70.6975C5.20385 70.4066 5.20231 70.1157 5.20073 69.8248C5.20042 69.7669 5.20011 69.709 5.19978 69.6493C5.19461 68.7149 5.18522 67.7805 5.17423 66.8461C5.16304 65.8854 5.15654 64.9248 5.15404 63.9641C5.15249 63.4252 5.14888 62.8865 5.14016 62.3477C5.13199 61.8393 5.12958 61.3312 5.13136 60.8227C5.13104 60.6373 5.1287 60.4518 5.12409 60.2664C5.09014 58.8308 5.48258 57.9985 6.45869 56.9459C6.62904 56.7756 6.62904 56.7756 6.78701 56.7546C6.88382 56.7549 6.88382 56.7549 6.98258 56.7551C7.05664 56.7549 7.13069 56.7546 7.20698 56.7544C7.32912 56.7553 7.32912 56.7553 7.45372 56.7563C7.53931 56.7562 7.6249 56.7562 7.71309 56.7562C7.99699 56.7563 8.28088 56.7576 8.56478 56.759C8.76123 56.7593 8.95768 56.7595 9.15413 56.7597C9.67195 56.7603 10.1898 56.762 10.7076 56.7639C11.2357 56.7656 11.7638 56.7664 12.2919 56.7673C13.3286 56.7691 14.3653 56.772 15.4021 56.7756C15.4021 56.2697 15.4021 55.7637 15.4021 55.2424C14.0529 55.2424 12.7037 55.2424 11.3137 55.2424C11.3137 52.9657 11.3137 50.689 11.3137 48.3432C14.6449 48.2453 14.6449 48.2453 16.0575 48.2498C16.2138 48.2499 16.3701 48.25 16.5264 48.2501C16.926 48.2504 17.3255 48.2513 17.7251 48.2522C18.2109 48.2533 18.6966 48.2536 19.1823 48.2541C19.9097 48.2549 20.637 48.2566 21.3644 48.2581C21.3925 49.4667 21.4206 50.6753 21.4495 51.9206C21.8149 51.6957 22.1803 51.4709 22.5568 51.2392C22.8523 51.0856 23.1445 50.9377 23.4458 50.7974C23.5219 50.7615 23.598 50.7257 23.6763 50.6888C25.2433 49.9616 25.2433 49.9616 25.7083 49.9616C25.6807 49.9146 25.653 49.8677 25.6245 49.8193C25.5237 49.5882 25.5159 49.4226 25.5153 49.171C25.5151 49.0853 25.5149 48.9995 25.5147 48.9112C25.5153 48.8221 25.516 48.7331 25.5166 48.6414C25.516 48.5523 25.5153 48.4633 25.5147 48.3715C25.5149 48.2858 25.5151 48.2 25.5153 48.1117C25.5155 48.0336 25.5157 47.9554 25.5159 47.875C25.5389 47.6525 25.5956 47.5125 25.7083 47.3211C25.7645 47.3211 25.8207 47.3211 25.8786 47.3211C25.8945 47.2649 25.9103 47.2087 25.9266 47.1508C26.2678 46.4387 26.8026 46.0504 27.5183 45.7614C28.2368 45.6296 28.8264 45.7338 29.4367 46.1407ZM17.7018 55.1573C17.7018 55.6913 17.7018 56.2254 17.7018 56.7756C17.758 56.7756 17.8143 56.7756 17.8722 56.7756C17.8948 56.7016 17.9174 56.6276 17.9407 56.5513C17.9708 56.4532 18.0009 56.355 18.0319 56.2539C18.0615 56.1571 18.0912 56.0602 18.1217 55.9604C18.2056 55.6915 18.2932 55.4242 18.3832 55.1573C18.1584 55.1573 17.9335 55.1573 17.7018 55.1573ZM20.7681 69.2112C20.2124 70.7004 20.0456 72.1159 20.0628 73.7014C20.0655 73.9518 20.0663 74.2021 20.0668 74.4525C20.0675 74.614 20.0684 74.7756 20.0694 74.9372C20.0698 75.0109 20.0702 75.0845 20.0705 75.1604C20.0756 75.5973 20.1097 76.0185 20.1719 76.4511C20.3933 76.1777 20.5433 75.8938 20.6959 75.5774C20.7212 75.5252 20.7465 75.473 20.7725 75.4193C20.8549 75.2488 20.9366 75.0781 21.0183 74.9073C21.0751 74.7891 21.1318 74.671 21.1885 74.5529C21.3332 74.2511 21.4771 73.9491 21.6208 73.6469C21.7024 73.4756 21.7842 73.3043 21.8661 73.1332C22.0124 72.8272 22.157 72.5205 22.3013 72.2136C22.3457 72.1205 22.3902 72.0274 22.436 71.9314C22.4759 71.8458 22.5157 71.7602 22.5568 71.672C22.5919 71.5973 22.6271 71.5227 22.6633 71.4458C22.752 71.2446 22.752 71.2446 22.642 70.9999C22.4587 70.8715 22.4587 70.8715 22.2374 70.755C21.5646 70.3655 21.1902 69.8444 20.7681 69.2112ZM23.4937 72.9589C23.1065 74.0423 22.7818 75.1371 22.4876 76.2488C22.4628 76.3419 22.4628 76.3419 22.4375 76.437C22.2489 77.1467 22.0757 77.8544 21.9606 78.5805C22.5664 78.4053 23.1586 78.2054 23.7493 77.9842C23.693 77.8911 23.6368 77.798 23.5789 77.7021C23.1526 76.8331 23.444 75.55 23.4937 74.6038C23.502 74.444 23.5102 74.2841 23.5184 74.1242C23.5383 73.7358 23.5585 73.3473 23.5789 72.9589C23.5508 72.9589 23.5227 72.9589 23.4937 72.9589Z" fill="#4F8BFB"/>
<path d="M32.5061 58.6122C32.6038 58.6127 32.7014 58.6132 32.802 58.6138C33.6968 58.6303 34.4689 58.7159 35.1625 59.3309C35.8246 60.2655 35.8012 61.3899 35.7907 62.4877C35.7902 62.5939 35.7902 62.5939 35.7898 62.7022C35.7613 68.2493 35.7613 68.2493 34.2356 69.8952C32.3758 71.6165 28.8231 71.427 26.4747 71.3406C22.7252 71.1648 22.7252 71.1648 21.5664 69.9405C21.291 69.5993 21.1315 69.2956 21.0234 68.8705C21.0616 68.5962 21.1658 68.4235 21.3322 68.205C21.3918 68.1252 21.3918 68.1252 21.4526 68.0437C21.906 67.5135 22.3403 67.1434 22.9665 66.8316C23.0366 66.7956 23.1067 66.7596 23.179 66.7225C23.6583 66.4796 24.1454 66.2579 24.6381 66.0437C26.0563 65.4271 26.9676 64.8176 27.5883 63.3718C27.7612 62.9156 27.87 62.4401 27.9894 61.9677C28.3087 60.7391 28.849 59.8743 29.9509 59.2244C30.7831 58.7456 31.5488 58.6035 32.5061 58.6122Z" fill="#364BB1"/>
<path d="M16.0575 48.2497C16.2138 48.2499 16.3701 48.25 16.5264 48.2501C16.926 48.2504 17.3255 48.2512 17.7251 48.2522C18.2109 48.2533 18.6966 48.2536 19.1823 48.2541C19.9097 48.2549 20.637 48.2566 21.3644 48.258C21.3644 49.5229 21.3644 50.7878 21.3644 52.0909C21.3363 52.0909 21.3081 52.0909 21.2792 52.0909C21.2792 50.8542 21.2792 49.6174 21.2792 48.3432C21.0074 48.3494 20.7357 48.3555 20.4557 48.3619C17.4639 48.4265 14.4768 48.4353 11.484 48.4284C11.484 50.6208 11.484 52.8132 11.484 55.0721C12.8051 55.0721 14.1262 55.0721 15.4873 55.0721C15.4873 55.6342 15.4873 56.1964 15.4873 56.7756C16.19 56.7756 16.8927 56.7756 17.6166 56.7756C17.6166 56.1853 17.6166 55.595 17.6166 54.9869C17.9258 54.9869 18.235 54.9869 18.5536 54.9869C18.5255 55.0431 18.4974 55.0993 18.4684 55.1572C18.2154 55.1572 17.9625 55.1572 17.7018 55.1572C17.7018 55.6913 17.7018 56.2253 17.7018 56.7756C17.758 56.7756 17.8143 56.7756 17.8722 56.7756C17.8755 56.8744 17.8755 56.8744 17.8788 56.9752C17.9141 57.6228 17.9616 58.1752 18.4631 58.6281C18.6313 58.7568 18.8016 58.8754 18.9795 58.9901C19.0638 59.0463 19.1481 59.1026 19.235 59.1605C18.5606 59.1626 17.8862 59.164 17.2117 59.1649C16.8978 59.1653 16.5838 59.1659 16.2699 59.1669C13.2825 59.1759 10.2982 59.118 7.31044 59.0753C7.31044 65.3434 7.31044 71.6114 7.31044 78.0694C6.63585 78.0694 5.96127 78.0694 5.26624 78.0694C5.23921 75.6121 5.21789 73.1549 5.20534 70.6975C5.20385 70.4066 5.20231 70.1157 5.20073 69.8248C5.20042 69.7669 5.20011 69.709 5.19978 69.6493C5.19461 68.7149 5.18522 67.7805 5.17423 66.8461C5.16304 65.8854 5.15654 64.9248 5.15404 63.964C5.15249 63.4252 5.14888 62.8865 5.14016 62.3476C5.13199 61.8392 5.12958 61.3311 5.13136 60.8227C5.13103 60.6372 5.1287 60.4518 5.12409 60.2664C5.09014 58.8308 5.48258 57.9984 6.45869 56.9459C6.62904 56.7756 6.62904 56.7756 6.78701 56.7546C6.88382 56.7549 6.88382 56.7549 6.98258 56.7551C7.05664 56.7549 7.13069 56.7546 7.20698 56.7544C7.32912 56.7553 7.32912 56.7553 7.45372 56.7562C7.53931 56.7562 7.6249 56.7562 7.71309 56.7562C7.997 56.7563 8.28088 56.7576 8.56478 56.7589C8.76123 56.7593 8.95768 56.7595 9.15413 56.7597C9.67196 56.7603 10.1898 56.762 10.7076 56.7639C11.2357 56.7656 11.7638 56.7664 12.2919 56.7673C13.3286 56.7691 14.3653 56.772 15.4021 56.7756C15.4021 56.2696 15.4021 55.7637 15.4021 55.2424C14.0529 55.2424 12.7037 55.2424 11.3137 55.2424C11.3137 52.9657 11.3137 50.689 11.3137 48.3432C14.6449 48.2452 14.6449 48.2452 16.0575 48.2497Z" fill="#709215"/>
<path d="M24.0049 71.4257C24.2177 71.4326 24.4281 71.4448 24.6404 71.46C25.6664 71.5252 26.693 71.5404 27.7207 71.5588C27.9148 71.5625 28.1089 71.5662 28.3029 71.57C28.7725 71.5789 29.2421 71.5876 29.7117 71.5961C29.6537 71.9005 29.576 72.1912 29.4849 72.4875C29.0329 73.9894 28.8513 75.5725 28.7552 77.1344C28.7249 77.5575 28.668 77.8728 28.434 78.2397C27.6242 78.6447 26.0069 78.2301 25.1441 78.0854C25.063 78.0723 24.9819 78.0593 24.8984 78.0459C24.4384 77.9623 24.1086 77.8634 23.7494 77.5583C23.6391 77.2274 23.65 76.9141 23.6512 76.5692C23.6514 76.4944 23.6516 76.4197 23.6517 76.3427C23.6586 75.4697 23.7116 74.5997 23.7687 73.7287C23.787 73.4487 23.8043 73.1686 23.8214 72.8885C23.8327 72.7102 23.8441 72.5319 23.8555 72.3537C23.8607 72.27 23.8658 72.1864 23.8711 72.1002C23.8788 71.9857 23.8788 71.9857 23.8866 71.8688C23.891 71.8015 23.8953 71.7342 23.8998 71.6649C23.9197 71.5109 23.9197 71.5109 24.0049 71.4257Z" fill="#1B2659"/>
<path d="M29.4377 46.1407C30.0683 46.6673 30.3262 47.4048 30.4312 48.1995C30.3734 48.6868 30.2623 49.1755 30.0532 49.6209C29.7698 49.733 29.4847 49.7121 29.1838 49.7054C29.0279 49.703 29.0279 49.703 28.8689 49.7006C28.759 49.6989 28.6492 49.6972 28.536 49.6954C27.6352 49.687 26.8352 49.738 25.9648 49.9616C25.8805 49.9616 25.7961 49.9616 25.7093 49.9616C25.5486 49.6887 25.5171 49.486 25.5163 49.171C25.5161 49.0853 25.5159 48.9995 25.5156 48.9112C25.5163 48.8222 25.5169 48.7331 25.5176 48.6414C25.517 48.5523 25.5163 48.4633 25.5156 48.3715C25.5158 48.2858 25.5161 48.2 25.5163 48.1117C25.5165 48.0336 25.5167 47.9554 25.5169 47.875C25.5399 47.6525 25.5966 47.5125 25.7093 47.3211C25.7655 47.3211 25.8217 47.3211 25.8796 47.3211C25.8954 47.2649 25.9112 47.2087 25.9275 47.1508C26.2687 46.4387 26.8036 46.0504 27.5192 45.7614C28.2377 45.6296 28.8274 45.7338 29.4377 46.1407Z" fill="#F4D765"/>
<path d="M33.6305 70.6592C34.1259 71.6738 34.5957 72.698 35.0505 73.7313C35.5028 74.7581 35.9608 75.7817 36.4457 76.7936C36.4985 76.9037 36.551 77.014 36.6032 77.1243C37.071 78.1115 37.646 78.9964 38.3151 79.8581C37.9939 79.8512 37.6728 79.8416 37.3516 79.8315C37.2603 79.8296 37.169 79.8276 37.0749 79.8257C36.9874 79.8226 36.8998 79.8196 36.8096 79.8165C36.7289 79.8143 36.6481 79.8121 36.565 79.8098C36.3106 79.7649 36.25 79.7265 36.1006 79.5174C36.0045 79.3188 35.9175 79.1231 35.8344 78.9192C35.8089 78.8581 35.7834 78.797 35.7571 78.7341C35.6723 78.5305 35.5883 78.3266 35.5044 78.1227C35.4448 77.9792 35.3851 77.8358 35.3254 77.6924C35.2304 77.4644 35.1355 77.2363 35.0408 77.0081C34.7985 76.4247 34.5529 75.8427 34.3059 75.2613C34.27 75.1766 34.234 75.0919 34.197 75.0047C33.9847 74.5044 33.9847 74.5044 33.7719 74.0043C33.3611 73.0391 32.9663 72.0713 32.6084 71.0851C33.4389 70.6592 33.4389 70.6592 33.6305 70.6592Z" fill="#1D2C74"/>
<path d="M30.8189 50.132C30.9119 50.1553 30.9119 50.1553 31.0068 50.1792C31.8964 50.4044 32.7259 50.7128 33.5552 51.1062C33.6348 51.1438 33.7145 51.1815 33.7966 51.2203C34.3473 51.4908 34.8386 51.8144 35.3332 52.1762C35.4087 52.2271 35.4843 52.2781 35.5621 52.3306C36.5607 53.2752 37.0209 54.7228 37.0793 56.0676C37.0624 56.6765 36.8891 57.1518 36.4767 57.6041C36.1391 57.8859 35.8437 57.9256 35.4114 57.9062C35.248 57.8829 35.248 57.8829 35.0777 57.7978C35.1234 56.8314 35.173 55.8664 35.248 54.9018C35.1918 54.8737 35.1356 54.8456 35.0777 54.8166C34.9933 56.1096 34.909 57.4025 34.8221 58.7347C34.513 58.6504 34.2038 58.566 33.8852 58.4792C32.2218 58.2061 30.6663 58.4311 29.2505 59.3842C28.3085 60.1406 27.9473 61.2784 27.6308 62.3992C27.2038 63.9052 27.2038 63.9052 26.7305 64.4414C26.6727 64.5157 26.6727 64.5157 26.6137 64.5915C25.9056 65.41 24.7358 65.8291 23.7653 66.2408C22.2208 66.8967 21.1271 67.665 20.4787 69.2664C19.9011 70.761 19.8153 72.2825 19.8207 73.8693C19.8207 73.9336 19.8208 73.998 19.8209 74.0643C19.822 74.8574 19.8386 75.6446 19.8972 76.4358C19.9285 76.923 19.9263 77.4111 19.9271 77.8991C19.9275 77.9904 19.9279 78.0816 19.9283 78.1756C19.9281 78.2601 19.928 78.3445 19.9278 78.4315C19.9277 78.5074 19.9276 78.5834 19.9275 78.6617C19.9165 78.8361 19.9165 78.8361 19.8313 78.9212C19.7058 78.9291 19.5799 78.9312 19.4541 78.9309C19.374 78.9309 19.2939 78.9309 19.2113 78.9309C19.1242 78.9304 19.037 78.93 18.9473 78.9295C18.8142 78.9294 18.8142 78.9294 18.6784 78.9292C18.3937 78.9287 18.109 78.9276 17.8244 78.9265C17.6319 78.9261 17.4394 78.9257 17.2469 78.9254C16.774 78.9244 16.301 78.923 15.8281 78.9212C15.0684 76.7978 14.8796 74.5793 14.8698 72.3414C14.8691 72.2452 14.8691 72.2452 14.8684 72.1469C14.855 69.6512 15.3352 67.562 16.8502 65.5487C16.8928 65.4913 16.9354 65.4339 16.9793 65.3747C18.1857 63.8597 20.2301 62.8814 22.131 62.6528C22.9306 62.5998 23.7306 62.6168 24.5244 62.7259C24.7622 62.7435 24.9109 62.6919 25.1122 62.5676C25.4838 62.1826 25.4771 61.7172 25.4718 61.2084C25.4362 60.7214 25.3288 60.2455 25.233 59.7675C25.1761 59.4789 25.1243 59.1896 25.0749 58.8997C25.0594 58.8087 25.0594 58.8087 25.0435 58.7158C24.9722 58.281 24.915 57.8453 24.862 57.4078C24.8514 57.3217 24.8514 57.3217 24.8407 57.2339C24.8055 56.9464 24.7715 56.659 24.7392 56.3712C24.6203 55.3827 24.4249 54.3662 23.8345 53.539C23.7783 53.5109 23.7221 53.4828 23.6642 53.4538C23.6848 53.5054 23.7055 53.557 23.7267 53.6102C23.8658 53.9579 23.8658 53.9579 24.0049 54.3056C24.0318 54.3666 24.0588 54.4277 24.0865 54.4906C24.3211 55.0379 24.4404 55.565 24.5266 56.1528C24.5406 56.2439 24.5546 56.3351 24.5691 56.4289C24.7076 57.364 24.7906 58.3031 24.8566 59.2457C19.6499 59.2976 19.6499 59.2976 18.6388 58.4792C18.1713 57.9596 18.0884 57.5896 18.1015 56.8981C18.246 55.2882 19.5693 53.8435 20.7386 52.8326C22.3352 51.5402 24.2359 50.6405 26.2194 50.132C26.3112 50.1028 26.403 50.0736 26.4976 50.0435C27.8652 49.6916 29.4658 49.768 30.8189 50.132Z" fill="#1B2659"/>
<path d="M16.0575 48.2498C16.2138 48.25 16.3701 48.2501 16.5264 48.2502C16.926 48.2505 17.3255 48.2513 17.7251 48.2523C18.2109 48.2533 18.6966 48.2537 19.1823 48.2542C19.9097 48.255 20.637 48.2566 21.3644 48.2581C21.3644 49.523 21.3644 50.7878 21.3644 52.091C21.3363 52.091 21.3081 52.091 21.2792 52.091C21.2792 50.8543 21.2792 49.6175 21.2792 48.3433C21.0074 48.3494 20.7357 48.3556 20.4557 48.3619C17.4639 48.4266 14.4768 48.4354 11.484 48.4285C11.484 50.6209 11.484 52.8133 11.484 55.0721C12.8051 55.0721 14.1262 55.0721 15.4873 55.0721C15.4873 55.6343 15.4873 56.1964 15.4873 56.7756C16.19 56.7756 16.8927 56.7756 17.6166 56.7756C17.6166 56.1854 17.6166 55.5951 17.6166 54.987C17.9258 54.987 18.235 54.987 18.5536 54.987C18.5255 55.0432 18.4974 55.0994 18.4684 55.1573C18.2154 55.1573 17.9625 55.1573 17.7018 55.1573C17.7018 55.6914 17.7018 56.2254 17.7018 56.7756C17.758 56.7756 17.8143 56.7756 17.8722 56.7756C17.8722 57.0005 17.8722 57.2254 17.8722 57.457C17.8441 57.457 17.816 57.457 17.787 57.457C17.787 57.2603 17.787 57.0635 17.787 56.8608C16.3639 56.834 14.941 56.8167 13.5176 56.8103C12.8566 56.8071 12.1959 56.8009 11.535 56.7875C10.9584 56.7758 10.3821 56.7699 9.80536 56.7708C9.50029 56.7711 9.19586 56.7686 8.89093 56.7591C8.54895 56.7486 8.20816 56.7511 7.86604 56.7544C7.76678 56.7494 7.66753 56.7444 7.56527 56.7392C7.05249 56.7551 6.74312 56.8908 6.38295 57.2502C5.48374 58.2721 5.34965 59.205 5.37075 60.5229C5.3694 60.7136 5.36753 60.9044 5.36519 61.0951C5.36034 61.6077 5.3627 62.1201 5.36645 62.6327C5.36914 63.1703 5.36504 63.7078 5.3617 64.2454C5.357 65.146 5.3564 66.0465 5.35902 66.9471C5.36171 67.8739 5.36186 68.8005 5.35869 69.7273C5.35849 69.7846 5.3583 69.8419 5.3581 69.901C5.3571 70.1887 5.35605 70.4763 5.35498 70.764C5.3462 73.1424 5.34629 75.5207 5.35141 77.8991C5.94168 77.8991 6.53194 77.8991 7.14009 77.8991C7.1399 77.7742 7.13971 77.6493 7.13952 77.5206C7.13717 75.9184 7.13567 74.3162 7.13477 72.7141C7.13473 72.65 7.13469 72.5859 7.13466 72.5199C7.13269 69.023 7.1392 65.5266 7.18268 62.0299C7.1837 61.9479 7.18472 61.8659 7.18577 61.7815C7.19778 60.8227 7.21083 59.8638 7.22527 58.905C9.12306 58.899 11.0203 58.9133 12.9179 58.9367C13.2223 58.9405 13.5267 58.944 13.8312 58.9474C15.6336 58.9672 17.4339 58.9977 19.235 59.0754C19.235 59.1035 19.235 59.1316 19.235 59.1605C18.5606 59.1626 17.8862 59.1641 17.2117 59.165C16.8978 59.1654 16.5838 59.1659 16.2699 59.167C13.2825 59.1759 10.2982 59.1181 7.31044 59.0754C7.31044 65.3434 7.31044 71.6115 7.31044 78.0695C6.63585 78.0695 5.96127 78.0695 5.26624 78.0695C5.23921 75.6122 5.21789 73.155 5.20534 70.6976C5.20385 70.4067 5.20231 70.1158 5.20073 69.8249C5.20042 69.7669 5.20011 69.709 5.19978 69.6494C5.19461 68.7149 5.18522 67.7805 5.17423 66.8461C5.16304 65.8855 5.15654 64.9248 5.15404 63.9641C5.15249 63.4252 5.14888 62.8865 5.14016 62.3477C5.13199 61.8393 5.12958 61.3312 5.13136 60.8227C5.13103 60.6373 5.1287 60.4518 5.12409 60.2664C5.09014 58.8309 5.48258 57.9985 6.45869 56.946C6.62904 56.7756 6.62904 56.7756 6.78701 56.7547C6.88382 56.7549 6.88382 56.7549 6.98258 56.7552C7.05664 56.7549 7.13069 56.7547 7.20698 56.7544C7.32912 56.7554 7.32912 56.7554 7.45372 56.7563C7.53931 56.7563 7.6249 56.7562 7.71309 56.7562C7.997 56.7563 8.28088 56.7577 8.56478 56.759C8.76123 56.7593 8.95768 56.7596 9.15413 56.7597C9.67196 56.7604 10.1898 56.7621 10.7076 56.7639C11.2357 56.7657 11.7638 56.7665 12.2919 56.7673C13.3286 56.7691 14.3653 56.7721 15.4021 56.7756C15.4021 56.2697 15.4021 55.7638 15.4021 55.2425C14.0529 55.2425 12.7037 55.2425 11.3137 55.2425C11.3137 52.9657 11.3137 50.689 11.3137 48.3433C14.6449 48.2453 14.6449 48.2453 16.0575 48.2498Z" fill="white"/>
<path d="M31.9269 71.2554C31.9286 71.3499 31.9303 71.4445 31.932 71.5419C31.9492 74.6772 31.9492 74.6772 32.2297 77.7949C32.2774 78.1401 32.2801 78.4774 32.2783 78.8253C32.2788 78.9238 32.2788 78.9238 32.2793 79.0243C32.2784 79.5066 32.2784 79.5066 32.1824 79.6025C32.0434 79.6159 31.9038 79.6239 31.7642 79.6295C31.68 79.6331 31.5957 79.6366 31.5089 79.6403C31.4202 79.6437 31.3315 79.647 31.2402 79.6505C31.1512 79.6541 31.0622 79.6578 30.9705 79.6616C30.7499 79.6707 30.5293 79.6794 30.3086 79.6877C30.3597 78.8055 30.4548 77.9328 30.5628 77.0561C30.611 76.6642 30.6584 76.2722 30.7055 75.8801C30.7151 75.8004 30.7247 75.7207 30.7346 75.6386C30.8499 74.6744 30.9525 73.7088 31.0533 72.7429C31.0599 72.6801 31.0666 72.6172 31.0734 72.5524C31.0912 72.3841 31.1087 72.2157 31.1262 72.0473C31.1553 71.8079 31.194 71.576 31.2455 71.3405C31.4808 71.2897 31.6851 71.2554 31.9269 71.2554Z" fill="#1D2C74"/>
<path d="M23.0692 71.1702C23.266 71.2264 23.4627 71.2826 23.6654 71.3405C23.6156 71.7769 23.5158 72.1703 23.3693 72.5849C23.326 72.7108 23.2828 72.8368 23.2396 72.9627C23.2169 73.0281 23.1943 73.0935 23.171 73.1609C22.8183 74.1834 22.4844 75.2054 22.2175 76.2541C22.1938 76.3466 22.1701 76.4391 22.1457 76.5345C22.0445 76.9394 21.9518 77.3433 21.8774 77.7539C21.708 78.666 21.708 78.666 21.4512 78.9168C21.0474 79.1217 20.6885 79.1228 20.2584 79.0063C20.0418 78.7897 20.095 78.2849 20.0879 77.991C20.1226 76.9188 20.7028 76.0001 21.1944 75.0746C21.453 74.5851 21.6901 74.0853 21.9287 73.5858C22.048 73.3365 22.1688 73.0879 22.2893 72.8391C22.5558 72.2857 22.8137 71.7287 23.0692 71.1702Z" fill="#374AA5"/>
<path d="M29.4356 46.1383C29.7406 46.395 29.9823 46.6966 30.1377 47.0656C30.0955 47.1921 30.0955 47.1921 30.0525 47.3211C30.0244 47.293 29.9963 47.2649 29.9673 47.2359C29.7962 47.2345 29.625 47.2392 29.4539 47.2463C29.3466 47.2504 29.2393 47.2545 29.1287 47.2588C29.0433 47.2623 29.0433 47.2623 28.9561 47.2659C28.664 47.278 28.3719 47.2887 28.0798 47.2992C28.0222 47.3012 27.9646 47.3033 27.9052 47.3055C27.2297 47.3289 26.5547 47.3294 25.8789 47.3211C26.0759 46.7685 26.4376 46.3165 26.9436 46.0116C27.8268 45.6015 28.6101 45.5936 29.4356 46.1383Z" fill="#8A6139"/>
<path d="M30.1378 48.684C30.2335 48.9654 30.2141 49.1142 30.1006 49.3867C30.0638 49.4769 30.0638 49.4769 30.0264 49.569C30.0069 49.6142 29.9875 49.6595 29.9675 49.7061C29.8916 49.7047 29.8157 49.7034 29.7375 49.702C29.4494 49.6976 29.1613 49.6944 28.8731 49.692C28.7497 49.6908 28.6262 49.689 28.5027 49.6868C27.7121 49.6728 26.9898 49.7289 26.2179 49.9063C25.9642 49.9616 25.9642 49.9616 25.7087 49.9616C25.5464 49.688 25.5194 49.4898 25.5277 49.1737C25.53 49.0597 25.53 49.0597 25.5324 48.9435C25.5343 48.8859 25.5363 48.8284 25.5384 48.7691C25.6648 48.8535 25.6648 48.8535 25.7939 48.9395C26.0312 48.9552 26.2597 48.9613 26.4969 48.9591C26.5664 48.9591 26.6358 48.959 26.7074 48.959C26.8547 48.9587 27.0019 48.9581 27.1492 48.957C27.372 48.9555 27.5948 48.9553 27.8176 48.9553C29.0304 49.0264 29.0304 49.0264 30.1378 48.684Z" fill="#865F3B"/>
<path d="M70.1371 21.5639C71.3983 22.6171 71.9141 24.0922 72.1241 25.6816C72.0072 26.667 71.684 27.5865 71.3681 28.5243C71.475 28.5482 71.5819 28.572 71.6921 28.5965C74.1393 29.1511 76.4297 29.8198 78.6932 30.9093C78.8116 30.966 78.9299 31.0227 79.0519 31.0811C82.2091 32.6191 84.1905 34.4745 85.3815 37.8151C85.938 39.6389 86.2947 41.8949 85.5818 43.7281C85.1058 44.5872 84.4032 45.147 83.5588 45.6233C82.9465 45.7726 82.3892 45.7511 81.7595 45.7297C81.5076 46.2336 81.515 46.5308 81.5892 47.0926C81.7991 47.3805 81.7991 47.3805 82.0683 47.6568C84.0328 49.8016 83.5615 54.0987 83.463 56.8025C82.999 66.6866 82.999 66.6866 79.8517 69.7918C79.6693 69.9723 79.6693 69.9723 79.4833 70.1564C79.3912 70.2469 79.2991 70.3374 79.2043 70.4306C79.2786 70.5921 79.353 70.7536 79.4295 70.92C79.7184 71.5476 80.0071 72.1753 80.2958 72.803C80.4271 73.0885 80.5585 73.374 80.6899 73.6594C81.3955 75.1924 82.0992 76.7261 82.7896 78.266C83.7393 80.3827 84.6928 82.4942 85.7521 84.559C85.8284 84.7101 85.9046 84.8611 85.9832 85.0168C86.5571 86.11 87.2714 87.0323 88.0625 87.9767C88.1816 88.1302 88.3007 88.2836 88.4234 88.4418C88.7095 88.8399 88.7095 88.8399 89.0846 88.9988C89.0846 89.2236 89.0846 89.4485 89.0846 89.6802C87.8345 89.7329 86.593 89.653 85.3475 89.5524C85.1115 89.5366 85.1115 89.5366 84.8706 89.5206C84.7208 89.5074 84.571 89.4942 84.4166 89.4806C84.2822 89.4698 84.1478 89.4591 84.0094 89.4481C83.4957 89.2997 83.2891 89.0695 82.952 88.6581C82.72 88.2278 82.72 88.2278 82.5088 87.7311C82.4268 87.5404 82.3449 87.3498 82.2605 87.1533C82.1715 86.9416 82.0826 86.7298 81.9937 86.5181C81.8986 86.2947 81.8034 86.0714 81.7081 85.8482C81.3819 85.0824 81.0596 84.315 80.7374 83.5476C80.6123 83.2502 80.4872 82.9528 80.362 82.6555C79.5174 80.6476 78.6775 78.6379 77.8397 76.6272C77.6363 76.139 77.4327 75.6508 77.2291 75.1627C76.808 74.1534 76.3875 73.1439 75.9676 72.1341C75.6424 76.1066 75.8775 80.0741 76.3055 84.0291C76.7339 88.1049 76.7339 88.1049 76.1379 88.9988C75.3587 89.2585 74.5697 89.2402 73.753 89.2756C73.4948 89.2888 73.4948 89.2888 73.2313 89.3022C73.0662 89.3097 72.9011 89.3171 72.7309 89.3248C72.5043 89.3353 72.5043 89.3353 72.2731 89.3459C71.8792 89.3395 71.8792 89.3395 71.3681 89.1691C71.299 87.2532 71.5144 85.3952 71.7408 83.4963C71.7791 83.1672 71.8173 82.8381 71.8554 82.509C71.9551 81.65 72.0563 80.7911 72.1578 79.9323C72.2615 79.053 72.3637 78.1736 72.4661 77.2942C72.6665 75.574 72.8686 73.854 73.0716 72.1341C72.5657 72.1903 72.0598 72.2465 71.5385 72.3044C71.3647 72.8714 71.1957 73.4394 71.0274 74.0079C70.9781 74.1683 70.9781 74.1683 70.9279 74.3319C70.0325 77.2541 69.653 80.1926 69.4639 83.2386C69.3799 84.4093 69.2405 85.4438 68.4402 86.3583C68.3383 86.4427 68.2365 86.527 68.1315 86.6139C68.2053 86.7901 68.2053 86.7901 68.2805 86.9699C69.0665 88.9594 69.0665 88.9594 68.8129 90.0209C68.4412 90.4903 68.1533 90.7765 67.6204 91.043C63.4728 91.3251 57.0335 91.4397 53.311 89.1691C52.98 88.8477 52.732 88.5221 52.4592 88.147C52.3468 88.147 52.2344 88.147 52.1185 88.147C52.2046 88.2665 52.2907 88.3859 52.3794 88.509C53.3974 89.9957 53.3974 89.9957 53.4387 90.7768C53.311 91.3837 53.311 91.3837 52.917 91.7989C49.2006 93.9597 40.0654 93.0507 35.9352 92.2354C35.5945 91.8947 35.5945 91.8947 35.4881 91.4369C35.659 90.5309 36.2185 90.1882 36.9573 89.6802C38.3123 88.833 39.7232 88.0889 41.1928 87.461C41.5945 87.2898 41.5945 87.2898 42.0679 86.9546C42.0396 86.8349 42.0113 86.7152 41.9821 86.5918C40.1736 78.8745 38.5881 69.1321 42.9728 61.9663C45.726 57.8396 49.5921 55.1399 54.4586 54.1527C55.0978 54.0656 55.7204 54.0649 56.3633 54.0783C56.6216 54.0812 56.8799 54.0841 57.1382 54.0869C57.542 54.0922 57.9457 54.0983 58.3494 54.1061C58.7414 54.1133 59.1334 54.1173 59.5254 54.1208C59.7067 54.1256 59.7067 54.1256 59.8917 54.1305C60.5519 54.135 60.5519 54.135 61.1313 53.8506C61.8362 52.7723 61.5459 51.1866 61.3024 50.0012C61.2784 49.889 61.2544 49.7768 61.2296 49.6611C61.2054 49.5444 61.1813 49.4277 61.1563 49.3075C61.0973 49.0233 61.0372 48.7393 60.9768 48.4554C60.8149 48.4571 60.653 48.4589 60.4862 48.4608C53.0193 48.5358 53.0193 48.5358 50.7741 47.9419C49.6988 47.701 48.6225 47.7138 47.525 47.704C47.2843 47.7007 47.0437 47.6972 46.803 47.6936C46.1625 47.6845 45.522 47.6772 44.8815 47.6704C44.2789 47.6637 43.6764 47.6552 43.0738 47.6469C41.3154 47.6236 39.5569 47.6031 37.7984 47.5823C31.9011 47.5085 31.9011 47.5085 25.8846 47.4333C25.8846 59.9693 25.8846 72.5054 25.8846 85.4214C24.5354 85.4214 23.1862 85.4214 21.7961 85.4214C21.7421 80.5069 21.6995 75.5924 21.6744 70.6777C21.6714 70.0959 21.6683 69.514 21.6651 68.9322C21.6645 68.8164 21.6639 68.7006 21.6632 68.5813C21.6529 66.7123 21.6341 64.8436 21.6121 62.9748C21.5897 61.0534 21.5768 59.1322 21.5718 57.2107C21.5687 56.1329 21.5614 55.0556 21.544 53.9779C21.5277 52.9611 21.5228 51.9449 21.5264 50.928C21.5257 50.5571 21.5211 50.1862 21.5118 49.8154C21.444 46.9442 22.2288 45.2795 24.181 43.1745C24.5218 42.8338 24.5217 42.8338 24.8377 42.7919C25.0313 42.7923 25.0313 42.7923 25.2288 42.7928C25.3769 42.7924 25.525 42.7919 25.6776 42.7914C25.9219 42.7932 25.9219 42.7932 26.1711 42.7951C26.3423 42.7951 26.5135 42.795 26.6899 42.795C27.2577 42.7952 27.8254 42.7979 28.3932 42.8005C28.7861 42.8012 29.179 42.8016 29.5719 42.802C30.6076 42.8033 31.6432 42.8066 32.6788 42.8104C33.735 42.8139 34.7912 42.8154 35.8474 42.8172C37.9209 42.8208 39.9944 42.8266 42.0679 42.8338C42.0679 41.8219 42.0679 40.81 42.0679 39.7675C39.3695 39.7675 36.6711 39.7675 33.891 39.7675C33.891 35.214 33.891 30.6605 33.891 25.9691C40.5534 25.7731 40.5534 25.7731 43.3787 25.7821C43.6913 25.7824 44.0038 25.7827 44.3164 25.7828C45.1156 25.7835 45.9148 25.7851 46.714 25.787C47.6854 25.7891 48.6568 25.7899 49.6283 25.7909C51.083 25.7925 52.5377 25.7958 53.9924 25.7987C54.0486 28.216 54.1048 30.6333 54.1627 33.1238C54.8935 32.6741 55.6243 32.2244 56.3773 31.761C56.9683 31.4537 57.5527 31.158 58.1553 30.8773C58.3075 30.8056 58.4596 30.734 58.6163 30.6601C61.7502 29.2058 61.7502 29.2058 62.6803 29.2058C62.625 29.1119 62.5697 29.018 62.5127 28.9213C62.3111 28.459 62.2955 28.1278 62.2943 27.6247C62.2939 27.4532 62.2934 27.2817 62.293 27.105C62.2943 26.9269 62.2956 26.7488 62.297 26.5653C62.2957 26.3872 62.2943 26.2091 62.293 26.0257C62.2934 25.8542 62.2939 25.6826 62.2943 25.5059C62.2947 25.3497 62.2951 25.1935 62.2955 25.0325C62.3415 24.5877 62.4549 24.3075 62.6803 23.9249C62.7927 23.9249 62.9051 23.9249 63.021 23.9249C63.0526 23.8125 63.0842 23.7 63.1168 23.5842C63.7992 22.16 64.8688 21.3834 66.3002 20.8053C67.7372 20.5419 68.9165 20.7502 70.1371 21.5639ZM46.6673 39.5971C46.6673 40.6652 46.6673 41.7333 46.6673 42.8338C46.7797 42.8338 46.8922 42.8338 47.008 42.8338C47.0533 42.6858 47.0985 42.5378 47.1451 42.3853C47.2053 42.189 47.2654 41.9927 47.3274 41.7904C47.3867 41.5967 47.446 41.403 47.5071 41.2035C47.6749 40.6657 47.85 40.131 48.0301 39.5971C47.5804 39.5971 47.1307 39.5971 46.6673 39.5971ZM52.7999 67.705C51.6885 70.6834 51.3549 73.5144 51.3892 76.6854C51.3946 77.1861 51.3962 77.6868 51.3972 78.1875C51.3988 78.5107 51.4005 78.8339 51.4025 79.157C51.4032 79.3043 51.404 79.4516 51.4047 79.6034C51.4149 80.4773 51.4831 81.3195 51.6075 82.1848C52.0503 81.638 52.3503 81.0703 52.6555 80.4373C52.7061 80.333 52.7566 80.2286 52.8086 80.1211C52.9734 79.7802 53.1369 79.4387 53.3003 79.0972C53.4138 78.8609 53.5272 78.6246 53.6407 78.3883C53.93 77.7849 54.2179 77.1808 54.5053 76.5764C54.6684 76.2337 54.8321 75.8913 54.9959 75.5489C55.2884 74.937 55.5776 74.3236 55.8662 73.7098C55.9552 73.5236 56.0441 73.3373 56.1357 73.1455C56.2154 72.9742 56.2952 72.8029 56.3773 72.6265C56.4476 72.4772 56.5178 72.328 56.5902 72.1742C56.7677 71.7718 56.7677 71.7718 56.5476 71.2823C56.181 71.0256 56.181 71.0256 55.7385 70.7926C54.3929 70.0136 53.6442 68.9713 52.7999 67.705ZM58.2511 75.2004C57.4766 77.3671 56.8273 79.5569 56.2389 81.7802C56.1892 81.9665 56.1892 81.9665 56.1386 82.1565C55.7614 83.5759 55.4151 84.9914 55.1848 86.4435C56.3965 86.0933 57.5809 85.6935 58.7622 85.2511C58.6498 85.0648 58.5373 84.8786 58.4215 84.6868C57.5689 82.9487 58.1517 80.3826 58.2511 78.4903C58.2676 78.1705 58.284 77.8508 58.3004 77.5311C58.3403 76.7541 58.3807 75.9773 58.4215 75.2004C58.3653 75.2004 58.3091 75.2004 58.2511 75.2004Z" fill="#4F8BFB"/>
<path d="M76.2769 46.507C76.4722 46.508 76.6674 46.509 76.8686 46.5101C78.6583 46.5432 80.2024 46.7143 81.5897 47.9443C82.9139 49.8137 82.8671 52.0624 82.846 54.2579C82.8451 54.4703 82.8451 54.4703 82.8442 54.687C82.7871 65.7812 82.7871 65.7812 79.7358 69.0731C76.0162 72.5155 68.9108 72.1366 64.214 71.9637C56.7151 71.6123 56.7151 71.6123 54.3975 69.1636C53.8466 68.4811 53.5277 67.8738 53.3115 67.0236C53.3879 66.475 53.5963 66.1296 53.929 65.6927C54.0483 65.5329 54.0483 65.5329 54.1699 65.37C55.0767 64.3096 55.9453 63.5694 57.1976 62.9458C57.3379 62.8738 57.4781 62.8018 57.6226 62.7276C58.5812 62.2418 59.5554 61.7984 60.5408 61.37C63.3772 60.1367 65.1999 58.9178 66.4412 56.0261C66.787 55.1137 67.0047 54.1628 67.2434 53.2181C67.882 50.7608 68.9626 49.0313 71.1664 47.7314C72.8308 46.7737 74.3622 46.4896 76.2769 46.507Z" fill="#364BB1"/>
<path d="M43.3788 25.7821C43.6913 25.7824 44.0038 25.7826 44.3164 25.7828C45.1156 25.7834 45.9148 25.7851 46.714 25.787C47.6854 25.7891 48.6568 25.7898 49.6283 25.7908C51.083 25.7924 52.5377 25.7957 53.9924 25.7987C53.9924 28.3284 53.9924 30.8581 53.9924 33.4645C53.9362 33.4645 53.88 33.4645 53.822 33.4645C53.822 30.991 53.822 28.5175 53.822 25.969C53.2785 25.9813 52.7351 25.9936 52.1751 26.0063C46.1914 26.1356 40.2172 26.1532 34.2317 26.1394C34.2317 30.5242 34.2317 34.909 34.2317 39.4267C36.8739 39.4267 39.516 39.4267 42.2382 39.4267C42.2382 40.551 42.2382 41.6754 42.2382 42.8337C43.6436 42.8337 45.049 42.8337 46.497 42.8337C46.497 41.6532 46.497 40.4727 46.497 39.2564C47.1153 39.2564 47.7337 39.2564 48.3708 39.2564C48.3146 39.3688 48.2584 39.4812 48.2005 39.5971C47.6945 39.5971 47.1886 39.5971 46.6673 39.5971C46.6673 40.6652 46.6673 41.7333 46.6673 42.8337C46.7797 42.8337 46.8922 42.8337 47.008 42.8337C47.0146 43.0314 47.0146 43.0314 47.0213 43.233C47.0919 44.5282 47.187 45.6331 48.1898 46.5389C48.5262 46.7961 48.8668 47.0335 49.2226 47.2629C49.3912 47.3753 49.5599 47.4877 49.7336 47.6036C48.3848 47.6077 47.036 47.6106 45.6872 47.6124C45.0592 47.6132 44.4313 47.6144 43.8034 47.6164C37.8286 47.6343 31.8602 47.5186 25.8846 47.4332C25.8846 59.9693 25.8846 72.5054 25.8846 85.4214C24.5354 85.4214 23.1862 85.4214 21.7961 85.4214C21.7421 80.5068 21.6995 75.5924 21.6744 70.6776C21.6714 70.0958 21.6683 69.514 21.6651 68.9322C21.6645 68.8164 21.6639 68.7006 21.6632 68.5812C21.6529 66.7123 21.6341 64.8435 21.6121 62.9747C21.5897 61.0534 21.5767 59.1321 21.5717 57.2107C21.5687 56.1329 21.5614 55.0555 21.544 53.9779C21.5277 52.9611 21.5228 51.9448 21.5264 50.9279C21.5257 50.5571 21.5211 50.1861 21.5118 49.8154C21.444 46.9442 22.2288 45.2795 24.181 43.1744C24.5218 42.8337 24.5218 42.8337 24.8377 42.7918C25.0313 42.7923 25.0313 42.7923 25.2288 42.7928C25.3769 42.7923 25.525 42.7918 25.6776 42.7914C25.9219 42.7932 25.9219 42.7932 26.1711 42.7951C26.3423 42.795 26.5135 42.795 26.6899 42.7949C27.2577 42.7952 27.8254 42.7978 28.3932 42.8005C28.7861 42.8011 29.179 42.8016 29.5719 42.8019C30.6076 42.8032 31.6432 42.8066 32.6789 42.8104C33.735 42.8138 34.7912 42.8154 35.8474 42.8171C37.9209 42.8208 39.9944 42.8266 42.0679 42.8337C42.0679 41.8219 42.0679 40.81 42.0679 39.7674C39.3695 39.7674 36.6711 39.7674 33.891 39.7674C33.891 35.214 33.891 30.6605 33.891 25.969C40.5534 25.7731 40.5534 25.7731 43.3788 25.7821Z" fill="#709215"/>
<path d="M59.2735 72.1341C59.6991 72.1479 60.12 72.1722 60.5445 72.2026C62.5965 72.3331 64.6496 72.3634 66.7051 72.4003C67.0932 72.4076 67.4814 72.4151 67.8696 72.4226C68.8087 72.4406 69.7478 72.4579 70.687 72.4748C70.5711 73.0837 70.4157 73.6651 70.2334 74.2577C69.3296 77.2616 68.9663 80.4276 68.7741 83.5514C68.7135 84.3976 68.5996 85.0283 68.1317 85.7621C66.512 86.572 63.2775 85.7428 61.552 85.4534C61.3897 85.4273 61.2275 85.4012 61.0604 85.3744C60.1405 85.2073 59.4808 85.0095 58.7625 84.3993C58.5418 83.7374 58.5637 83.1109 58.5662 82.421C58.5665 82.2715 58.5668 82.122 58.5672 81.968C58.5809 80.222 58.6869 78.482 58.8011 76.7401C58.8377 76.18 58.8722 75.6199 58.9065 75.0597C58.9291 74.7031 58.9519 74.3465 58.9747 73.99C58.985 73.8227 58.9953 73.6554 59.0059 73.483C59.0213 73.254 59.0213 73.254 59.0369 73.0203C59.0456 72.8857 59.0543 72.7511 59.0633 72.6124C59.1032 72.3044 59.1032 72.3044 59.2735 72.1341Z" fill="#1B2659"/>
<path d="M70.1371 21.5639C71.3983 22.6171 71.9141 24.0922 72.1241 25.6816C72.0084 26.6561 71.7864 27.6336 71.3681 28.5243C70.8014 28.7485 70.231 28.7067 69.6294 28.6934C69.3175 28.6886 69.3175 28.6886 68.9994 28.6837C68.7798 28.6803 68.5601 28.6769 68.3338 28.6734C66.5322 28.6565 64.9321 28.7586 63.1913 29.2058C63.0227 29.2058 62.854 29.2058 62.6802 29.2058C62.3589 28.66 62.2958 28.2547 62.2943 27.6247C62.2939 27.4532 62.2934 27.2817 62.293 27.105C62.2943 26.9269 62.2956 26.7488 62.297 26.5653C62.2956 26.3872 62.2943 26.2091 62.293 26.0257C62.2934 25.8542 62.2938 25.6826 62.2943 25.506C62.2947 25.3497 62.2951 25.1935 62.2955 25.0325C62.3415 24.5877 62.4549 24.3075 62.6802 23.9249C62.7927 23.9249 62.9051 23.9249 63.021 23.9249C63.0526 23.8125 63.0842 23.7 63.1168 23.5842C63.7992 22.16 64.8688 21.3834 66.3002 20.8053C67.7372 20.5419 68.9165 20.7502 70.1371 21.5639Z" fill="#F4D765"/>
<path d="M78.5237 70.601C79.5145 72.6301 80.454 74.6786 81.3636 76.7451C82.2683 78.7988 83.1843 80.846 84.1542 82.8698C84.2597 83.09 84.3646 83.3105 84.469 83.5312C85.4047 85.5055 86.5547 87.2753 87.893 88.9988C87.2505 88.9851 86.6082 88.9658 85.9659 88.9456C85.7833 88.9417 85.6007 88.9379 85.4126 88.9339C85.2375 88.9279 85.0623 88.9219 84.8819 88.9156C84.7204 88.9112 84.559 88.9067 84.3926 88.9021C83.8839 88.8124 83.7627 88.7357 83.4639 88.3174C83.2716 87.9203 83.0977 87.5288 82.9315 87.121C82.8805 86.9988 82.8295 86.8766 82.777 86.7508C82.6073 86.3436 82.4394 85.9358 82.2714 85.5279C82.1522 85.241 82.0329 84.9542 81.9135 84.6674C81.7235 84.2113 81.5337 83.7552 81.3443 83.2989C80.8597 82.132 80.3685 80.9681 79.8745 79.8052C79.8026 79.6358 79.7308 79.4664 79.6567 79.2919C79.2321 78.2914 79.2321 78.2914 78.8066 77.2913C77.9848 75.3607 77.1952 73.4253 76.4795 71.4527C78.1404 70.601 78.1404 70.601 78.5237 70.601Z" fill="#1D2C74"/>
<path d="M72.9015 29.5464C73.0875 29.5931 73.0875 29.5931 73.2773 29.6408C75.0565 30.0913 76.7155 30.708 78.374 31.4948C78.5333 31.5702 78.6926 31.6455 78.8568 31.7231C79.9582 32.264 80.9409 32.9112 81.9301 33.6349C82.0811 33.7368 82.2322 33.8386 82.3879 33.9436C84.385 35.8328 85.3055 38.7281 85.4223 41.4177C85.3884 42.6354 85.0419 43.5861 84.2172 44.4907C83.5418 45.0543 82.9511 45.1336 82.0864 45.0949C81.7597 45.0483 81.7597 45.0483 81.419 44.878C81.5104 42.9454 81.6096 41.0152 81.7597 39.0861C81.6473 39.0299 81.5349 38.9736 81.419 38.9157C81.2504 41.5016 81.0817 44.0876 80.908 46.7519C80.2896 46.5832 79.6712 46.4146 79.0341 46.2408C75.7074 45.6946 72.5963 46.1447 69.7646 48.0508C67.8807 49.5638 67.1582 51.8392 66.5253 54.0809C65.6712 57.0929 65.6712 57.0929 64.7247 58.1653C64.6091 58.3139 64.6091 58.3139 64.4911 58.4654C63.0749 60.1024 60.7353 60.9407 58.7943 61.764C55.7053 63.0759 53.5179 64.6125 52.2211 67.8153C51.0659 70.8046 50.8942 73.8475 50.905 77.021C50.9051 77.1497 50.9053 77.2784 50.9054 77.4111C50.9076 78.9972 50.9409 80.5716 51.058 82.1541C51.1208 83.1285 51.1162 84.1047 51.1179 85.0807C51.1187 85.2632 51.1195 85.4457 51.1202 85.6338C51.1199 85.8026 51.1196 85.9715 51.1193 86.1454C51.1191 86.2974 51.1189 86.4493 51.1187 86.6059C51.0966 86.9546 51.0966 86.9546 50.9263 87.1249C50.6753 87.1408 50.4235 87.1449 50.172 87.1443C50.0117 87.1442 49.8514 87.1442 49.6863 87.1442C49.512 87.1433 49.3378 87.1425 49.1582 87.1416C48.892 87.1412 48.892 87.1412 48.6204 87.1408C48.0511 87.1399 47.4817 87.1377 46.9124 87.1356C46.5274 87.1347 46.1425 87.1339 45.7575 87.1332C44.8116 87.1314 43.8657 87.1285 42.9198 87.1249C41.4004 82.878 41.0229 78.4411 41.0034 73.9653C41.002 73.7728 41.002 73.7728 41.0005 73.5763C40.9737 68.5849 41.9341 64.4065 44.964 60.3799C45.0492 60.265 45.1344 60.1502 45.2222 60.0319C47.6351 57.0018 51.7239 55.0454 55.5257 54.588C57.1248 54.4821 58.7249 54.516 60.3126 54.7344C60.788 54.7696 61.0854 54.6663 61.488 54.4176C62.2314 53.6477 62.2179 52.717 62.2073 51.6993C62.1361 50.7253 61.9213 49.7736 61.7297 48.8174C61.616 48.2403 61.5123 47.6618 61.4135 47.0819C61.3824 46.8999 61.3824 46.8999 61.3507 46.7141C61.2081 45.8444 61.0937 44.973 60.9876 44.0981C60.9665 43.9259 60.9665 43.9259 60.945 43.7502C60.8747 43.1753 60.8066 42.6005 60.7421 42.0249C60.5043 40.0479 60.1134 38.015 58.9327 36.3605C58.8203 36.3043 58.7079 36.248 58.592 36.1901C58.6333 36.2933 58.6746 36.3965 58.7171 36.5029C58.9953 37.1982 58.9953 37.1982 59.2735 37.8936C59.3273 38.0157 59.3812 38.1378 59.4367 38.2636C59.9058 39.3583 60.1445 40.4124 60.3168 41.5881C60.3449 41.7703 60.373 41.9526 60.4019 42.1404C60.6789 44.0104 60.8449 45.8887 60.977 47.774C50.5634 47.8777 50.5634 47.8777 48.5414 46.2408C47.6062 45.2018 47.4405 44.4617 47.4667 43.0787C47.7558 39.8588 50.4024 36.9694 52.7409 34.9478C55.9341 32.3628 59.7354 30.5634 63.7026 29.5464C63.8861 29.488 64.0697 29.4296 64.2589 29.3694C66.9942 28.6656 70.1952 28.8185 72.9015 29.5464Z" fill="#1B2659"/>
<path d="M43.3788 25.7821C43.6913 25.7824 44.0038 25.7826 44.3164 25.7828C45.1156 25.7834 45.9148 25.7851 46.714 25.787C47.6854 25.7891 48.6568 25.7898 49.6283 25.7908C51.083 25.7924 52.5377 25.7957 53.9924 25.7987C53.9924 28.3284 53.9924 30.8581 53.9924 33.4645C53.9362 33.4645 53.88 33.4645 53.822 33.4645C53.822 30.991 53.822 28.5175 53.822 25.969C53.2785 25.9813 52.7351 25.9936 52.1751 26.0063C46.1914 26.1356 40.2172 26.1532 34.2317 26.1394C34.2317 30.5242 34.2317 34.909 34.2317 39.4267C36.8739 39.4267 39.516 39.4267 42.2382 39.4267C42.2382 40.551 42.2382 41.6754 42.2382 42.8337C43.6436 42.8337 45.049 42.8337 46.497 42.8337C46.497 41.6532 46.497 40.4727 46.497 39.2564C47.1153 39.2564 47.7337 39.2564 48.3708 39.2564C48.3146 39.3688 48.2584 39.4812 48.2005 39.5971C47.6945 39.5971 47.1886 39.5971 46.6673 39.5971C46.6673 40.6652 46.6673 41.7333 46.6673 42.8337C46.7797 42.8337 46.8922 42.8337 47.008 42.8337C47.008 43.2835 47.008 43.7332 47.008 44.1965C46.9518 44.1965 46.8956 44.1965 46.8377 44.1965C46.8377 43.803 46.8377 43.4095 46.8377 43.0041C43.9914 42.9506 41.1457 42.9158 38.299 42.903C36.9769 42.8967 35.6554 42.8843 34.3336 42.8575C33.1804 42.8341 32.0278 42.8224 30.8744 42.8241C30.2643 42.8246 29.6554 42.8196 29.0455 42.8007C28.3616 42.7797 27.68 42.7846 26.9957 42.7914C26.7972 42.7813 26.5987 42.7713 26.3942 42.7609C25.3687 42.7927 24.7499 43.0642 24.0296 43.7829C22.2312 45.8267 21.963 47.6925 22.0052 50.3283C22.0025 50.7098 21.9987 51.0912 21.994 51.4727C21.9843 52.4979 21.9891 53.5226 21.9966 54.5478C22.0019 55.623 21.9938 56.6981 21.9871 57.7732C21.9777 59.5744 21.9765 61.3755 21.9817 63.1767C21.9871 65.0302 21.9874 66.8836 21.981 68.737C21.9807 68.8517 21.9803 68.9664 21.9799 69.0845C21.9779 69.6598 21.9758 70.2351 21.9736 70.8104C21.9561 75.5672 21.9563 80.3239 21.9665 85.0807C23.147 85.0807 24.3276 85.0807 25.5439 85.0807C25.5435 84.8309 25.5431 84.5811 25.5427 84.3237C25.538 81.1193 25.535 77.915 25.5332 74.7106C25.5331 74.5825 25.5331 74.4544 25.533 74.3224C25.5291 67.3285 25.5421 60.3357 25.629 53.3422C25.6311 53.1783 25.6331 53.0144 25.6352 52.8455C25.6592 50.9278 25.6853 49.0101 25.7142 47.0925C29.5098 47.0805 33.3043 47.109 37.0995 47.1559C37.7083 47.1634 38.3172 47.1705 38.926 47.1772C42.5309 47.217 46.1315 47.278 49.7336 47.4332C49.7336 47.4894 49.7336 47.5456 49.7336 47.6036C48.3848 47.6077 47.036 47.6106 45.6872 47.6124C45.0592 47.6132 44.4313 47.6144 43.8034 47.6164C37.8286 47.6343 31.8602 47.5186 25.8846 47.4332C25.8846 59.9693 25.8846 72.5054 25.8846 85.4214C24.5354 85.4214 23.1862 85.4214 21.7961 85.4214C21.7421 80.5068 21.6995 75.5924 21.6744 70.6776C21.6714 70.0958 21.6683 69.514 21.6651 68.9322C21.6645 68.8164 21.6639 68.7006 21.6632 68.5812C21.6529 66.7123 21.6341 64.8435 21.6121 62.9747C21.5897 61.0534 21.5767 59.1321 21.5717 57.2107C21.5687 56.1329 21.5614 55.0555 21.544 53.9779C21.5277 52.9611 21.5228 51.9448 21.5264 50.9279C21.5257 50.5571 21.5211 50.1861 21.5118 49.8154C21.444 46.9442 22.2288 45.2795 24.181 43.1744C24.5218 42.8337 24.5218 42.8337 24.8377 42.7918C25.0313 42.7923 25.0313 42.7923 25.2288 42.7928C25.3769 42.7923 25.525 42.7918 25.6776 42.7914C25.9219 42.7932 25.9219 42.7932 26.1711 42.7951C26.3423 42.795 26.5135 42.795 26.6899 42.7949C27.2577 42.7952 27.8254 42.7978 28.3932 42.8005C28.7861 42.8011 29.179 42.8016 29.5719 42.8019C30.6076 42.8032 31.6432 42.8066 32.6789 42.8104C33.735 42.8138 34.7912 42.8154 35.8474 42.8171C37.9209 42.8208 39.9944 42.8266 42.0679 42.8337C42.0679 41.8219 42.0679 40.81 42.0679 39.7674C39.3695 39.7674 36.6711 39.7674 33.891 39.7674C33.891 35.214 33.891 30.6605 33.891 25.969C40.5534 25.7731 40.5534 25.7731 43.3788 25.7821Z" fill="white"/>
<path d="M75.1165 71.7933C75.1199 71.9824 75.1233 72.1715 75.1268 72.3663C75.161 78.6369 75.161 78.6369 75.7221 84.8724C75.8175 85.5628 75.8228 86.2373 75.8192 86.9332C75.8202 87.1302 75.8202 87.1302 75.8212 87.3312C75.8195 88.2957 75.8195 88.2957 75.6276 88.4877C75.3495 88.5145 75.0703 88.5304 74.7911 88.5416C74.6226 88.5487 74.4541 88.5559 74.2804 88.5632C74.1031 88.5699 73.9258 88.5766 73.7431 88.5835C73.5651 88.5909 73.3871 88.5982 73.2038 88.6058C72.7625 88.6239 72.3212 88.6413 71.8799 88.658C71.982 86.8936 72.1722 85.1482 72.3883 83.3947C72.4848 82.6109 72.5794 81.8269 72.6737 81.0428C72.6929 80.8834 72.7121 80.7241 72.7319 80.5598C72.9624 78.6313 73.1676 76.7001 73.3693 74.7684C73.3826 74.6427 73.3959 74.517 73.4095 74.3874C73.445 74.0507 73.48 73.7139 73.515 73.3772C73.5733 72.8983 73.6506 72.4346 73.7537 71.9637C74.2244 71.8619 74.6328 71.7933 75.1165 71.7933Z" fill="#1D2C74"/>
<path d="M57.4001 71.623C57.7936 71.7355 58.1872 71.8479 58.5926 71.9637C58.493 72.8365 58.2932 73.6233 58.0004 74.4525C57.9138 74.7043 57.8273 74.9563 57.7408 75.2082C57.6956 75.3389 57.6504 75.4697 57.6038 75.6044C56.8984 77.6495 56.2305 79.6935 55.6966 81.7908C55.6493 81.9759 55.6019 82.161 55.5531 82.3517C55.3507 83.1614 55.1653 83.9693 55.0166 84.7906C54.6777 86.6148 54.6777 86.6148 54.1641 87.1163C53.3566 87.5262 52.6387 87.5283 51.7786 87.2953C51.3454 86.8621 51.4517 85.8525 51.4375 85.2647C51.5069 83.1204 52.6672 81.2828 53.6506 79.432C54.1677 78.453 54.6419 77.4532 55.119 76.4543C55.3577 75.9557 55.5994 75.4584 55.8404 74.9609C56.3732 73.8541 56.8891 72.74 57.4001 71.623Z" fill="#374AA5"/>
<path d="M70.1349 21.5592C70.7449 22.0725 71.2284 22.6758 71.539 23.4138C71.4547 23.6668 71.4547 23.6668 71.3687 23.9248C71.3124 23.8686 71.2562 23.8124 71.1983 23.7545C70.856 23.7516 70.5136 23.7609 70.1715 23.7751C69.9569 23.7834 69.7423 23.7916 69.5212 23.8001C69.3502 23.8072 69.3502 23.8072 69.1758 23.8145C68.5917 23.8386 68.0075 23.86 67.4233 23.8809C67.3081 23.8851 67.1928 23.8892 67.0741 23.8935C65.723 23.9403 64.3731 23.9413 63.0215 23.9248C63.4155 22.8196 64.1388 21.9157 65.1509 21.3057C66.9173 20.4856 68.4838 20.4699 70.1349 21.5592Z" fill="#8A6139"/>
<path d="M71.5383 26.6505C71.7298 27.2134 71.6909 27.5109 71.4638 28.0559C71.3903 28.2364 71.3903 28.2364 71.3154 28.4206C71.2765 28.511 71.2377 28.6015 71.1976 28.6947C71.0459 28.692 70.8941 28.6894 70.7378 28.6866C70.1615 28.6778 69.5853 28.6714 69.009 28.6666C68.762 28.6641 68.5151 28.6607 68.2682 28.6562C66.6869 28.6282 65.2423 28.7404 63.6986 29.0951C63.1912 29.2058 63.1912 29.2058 62.6801 29.2058C62.3554 28.6586 62.3015 28.2622 62.3181 27.63C62.3227 27.4021 62.3227 27.4021 62.3274 27.1695C62.3314 27.0545 62.3353 26.9394 62.3394 26.8209C62.5924 26.9895 62.5924 26.9895 62.8505 27.1616C63.325 27.193 63.7821 27.2052 64.2565 27.2008C64.3954 27.2007 64.5343 27.2007 64.6775 27.2006C64.972 27.2001 65.2666 27.1987 65.5611 27.1966C66.0067 27.1935 66.4523 27.1931 66.8979 27.1932C69.3235 27.3355 69.3235 27.3355 71.5383 26.6505Z" fill="#865F3B"/>
</svg>
