<?xml version="1.0" encoding="UTF-8"?>
<svg id="Camada_1" xmlns="http://www.w3.org/2000/svg" version="1.1" viewBox="0 0 1862.6 1250.8">
  <!-- Generator: Adobe Illustrator 30.2.1, SVG Export Plug-In . SVG Version: 2.1.1 Build 1)  -->
  <defs>
    <style>
      .st0, .st1 {
        fill: #4eccc3;
      }

      .st2, .st1 {
        fill-rule: evenodd;
      }

      .st2, .st3 {
        fill: #0f4c80;
      }
    </style>
  </defs>
  <g>
    <path class="st3" d="M51.4,1184.6c-15.9-9.2-28.4-21.8-37.6-37.7-9.2-15.9-13.8-33.3-13.8-52.3s4.6-36.5,13.8-52.4c9.2-15.9,21.7-28.5,37.6-37.7,15.9-9.2,33.4-13.9,52.6-13.9s28.2,2.7,41.2,8.2c13,5.5,24.2,13.6,33.4,24.5,9.3,10.9,15.5,24,18.8,39.5h-26.4c-4.4-15.7-12.6-27.7-24.7-35.9-12.1-8.2-26.4-12.3-43-12.3s-27.5,3.4-39.2,10.3c-11.8,6.8-21.1,16.4-27.9,28.6-6.8,12.2-10.2,26-10.2,41.2s3.4,29.1,10.2,41.2c6.8,12.1,16.1,21.6,27.9,28.4,11.8,6.8,24.9,10.2,39.2,10.2s30.8-4.1,42.9-12.3c12.1-8.2,20.3-20.1,24.7-35.8h26.5c-3.2,15.5-9.5,28.7-18.7,39.6-9.2,10.9-20.4,19-33.4,24.4-13,5.4-26.8,8.1-41.4,8.1s-36.7-4.6-52.6-13.9Z"/>
    <path class="st3" d="M256.7,1188.2c-11.1-7-19.8-16.6-26.1-28.7-6.4-12.1-9.5-25.3-9.5-39.8s3.2-27.6,9.5-39.7c6.4-12.1,15.1-21.6,26.1-28.7,11-7,23.2-10.6,36.5-10.6s25.4,3.2,35.9,9.7c10.6,6.5,18.4,15.3,23.5,26.5v-32.1h24.2v149.6h-24.2v-31.8c-5.1,11.1-12.9,19.9-23.5,26.4-10.6,6.5-22.5,9.7-35.8,9.7s-25.6-3.5-36.7-10.6ZM325.5,1167.8c8.1-4.9,14.4-11.6,19.1-20,4.7-8.5,7-17.8,7-28.1s-2.4-19.5-7.1-27.9c-4.7-8.5-11.1-15.1-19.1-20-8-4.9-16.8-7.3-26.4-7.3s-18.6,2.4-26.6,7.1c-8.1,4.7-14.5,11.3-19.2,19.7-4.7,8.4-7.1,17.9-7.1,28.5s2.4,20.3,7.1,28.7c4.7,8.4,11.1,15,19.2,19.7,8.1,4.7,16.9,7,26.5,7s18.6-2.4,26.6-7.3Z"/>
    <path class="st3" d="M449.5,1044.9v33.4c3.7-10.5,9.5-18.7,17.5-24.6,7.9-5.9,17.3-8.9,28-8.9h14.5v22.1h-13.2c-8.8,0-16.7,2.3-23.6,6.8-6.9,4.5-12.4,11.1-16.3,19.7-3.9,8.6-5.9,18.8-5.9,30.5v70.4h-25.4v-149.6h24.3Z"/>
  </g>
  <path class="st3" d="M668.8,1126.3h-124.1c1,9.8,3.9,18.4,8.7,25.7,4.8,7.4,10.8,13.1,18.1,17.1,7.3,4,15,6,23.2,6s18.7-2.2,25.8-6.5c7.1-4.3,12.4-10.7,15.7-19.1h28.3c-2.8,9.2-7.6,17.5-14.2,25-6.7,7.5-14.7,13.4-24.2,17.7-9.5,4.3-19.8,6.5-30.8,6.5s-27.1-3.5-38.7-10.6c-11.6-7-20.8-16.6-27.4-28.6-6.7-12-10-25.3-10-39.7s3.3-27.6,10-39.7c6.7-12.1,15.8-21.7,27.4-28.7,11.6-7,24.5-10.6,38.6-10.6s26.6,3.4,37.9,10.3c11.3,6.9,20.1,16.1,26.5,27.6,6.4,11.5,9.5,24,9.5,37.4s-.1,4.8-.4,10.3ZM643.4,1104c-.5-7-3-13.6-7.5-19.7-4.5-6.1-10.4-10.9-17.7-14.5-7.3-3.6-15.1-5.4-23.4-5.4s-14.8,1.5-21.6,4.6-12.5,7.6-17.4,13.6c-4.8,6-8.2,13.1-10,21.4h97.5Z"/>
  <g>
    <path class="st0" d="M705.6,995h26v199.5h-26v-199.5Z"/>
    <path class="st0" d="M1008,1059.1c9.6,12.3,14.4,30.4,14.4,54.3v81.1h-25.1v-80.7c0-16.7-3.4-29.2-10-37.3-6.7-8.2-16.2-12.2-28.5-12.2s-14.8,2.2-21.5,6.6c-6.7,4.4-12.1,10.5-16.1,18.4-4.1,7.9-6.1,16.7-6.1,26.6v78.6h-24.9v-80.7c0-16.8-3.3-29.3-10-37.4-6.7-8.1-16.1-12.2-28.5-12.2s-14.8,2.2-21.6,6.6c-6.7,4.4-12.2,10.5-16.2,18.4-4.1,7.9-6.1,16.7-6.1,26.6v78.6h-24.9v-149.6h23.8l.3,28.9c2.5-6.3,6.4-11.9,11.4-16.9,5.1-5,11.1-9,18-11.9,6.9-2.9,14.3-4.3,22.1-4.3,13.4,0,24.5,3.2,33.2,9.7,8.8,6.5,15.1,16,19,28.7,5.7-12.5,13.3-22,22.9-28.6,9.6-6.5,20.3-9.8,32.1-9.8,18.6,0,32.7,6.2,42.3,18.5Z"/>
    <path class="st0" d="M1092.1,1188.2c-11.1-7-19.8-16.6-26.1-28.7-6.4-12.1-9.5-25.3-9.5-39.8s3.2-27.6,9.5-39.7c6.4-12.1,15.1-21.6,26.1-28.7,11-7,23.2-10.6,36.5-10.6s25.4,3.2,35.9,9.7c10.6,6.5,18.4,15.3,23.5,26.5v-32.1h24.2v149.6h-24.2v-31.8c-5.1,11.1-12.9,19.9-23.5,26.4-10.6,6.5-22.5,9.7-35.8,9.7s-25.6-3.5-36.7-10.6ZM1161,1167.8c8.1-4.9,14.4-11.6,19.1-20,4.7-8.5,7-17.8,7-28.1s-2.4-19.5-7.1-27.9c-4.7-8.5-11.1-15.1-19.1-20-8-4.9-16.8-7.3-26.4-7.3s-18.6,2.4-26.6,7.1c-8.1,4.7-14.5,11.3-19.2,19.7-4.7,8.4-7.1,17.9-7.1,28.5s2.4,20.3,7.1,28.7c4.7,8.4,11.1,15,19.2,19.7,8.1,4.7,16.9,7,26.5,7s18.6-2.4,26.6-7.3Z"/>
    <path class="st0" d="M1286.4,1243c-10.6-5.2-18.4-12-23.5-20.4-5.1-8.4-8-17.4-8.6-27.2h23.9c1.7,10.1,6.3,18.2,13.9,24.5,7.6,6.3,18.9,9.4,34.1,9.4s22.5-2.5,30.4-7.5c8-5,13.8-11.5,17.5-19.7,3.7-8.1,5.5-17.1,5.5-27v-18.5c-5.2,11.1-12.9,19.8-23.2,25.9-10.3,6.1-21.9,9.2-34.8,9.2s-26.3-3.3-37.5-10c-11.2-6.7-20-15.8-26.4-27.2-6.4-11.4-9.6-24-9.6-37.5s3.2-26.1,9.5-37.8c6.4-11.7,15.1-21,26.2-27.9,11.1-6.9,23.4-10.4,37-10.4s17.7,1.6,25.5,4.8c7.8,3.2,14.6,7.6,20.2,13.1,5.7,5.5,10,11.6,13.1,18.3v-32.1h24.2v129.5c0,14.3-2.9,27.2-8.7,38.7-5.8,11.5-14.5,20.7-26.2,27.5-11.7,6.8-25.9,10.2-42.8,10.2s-29.2-2.6-39.7-7.8ZM1352.4,1162.3c8.1-4.7,14.5-11.1,19.2-19.1,4.7-8,7.1-16.8,7.1-26.3s-2.3-18.1-7-26.1c-4.7-8-11.1-14.4-19.1-19.2-8.1-4.8-16.9-7.2-26.5-7.2s-18.6,2.3-26.7,6.9c-8.1,4.6-14.5,10.9-19.2,18.8-4.7,8-7,16.9-7,26.8s2.3,18.7,7,26.7c4.7,8,11.1,14.3,19.1,18.9,8.1,4.6,16.9,6.9,26.6,6.9s18.4-2.4,26.5-7.1Z"/>
    <path class="st0" d="M1589.2,1126.3h-124.1c1,9.8,3.9,18.4,8.7,25.7,4.8,7.4,10.8,13.1,18.1,17.1,7.3,4,15,6,23.2,6s18.7-2.2,25.8-6.5c7.1-4.3,12.4-10.7,15.7-19.1h28.3c-2.8,9.2-7.6,17.5-14.2,25-6.7,7.5-14.7,13.4-24.2,17.7-9.5,4.3-19.8,6.5-30.8,6.5s-27.1-3.5-38.7-10.6c-11.6-7-20.8-16.6-27.4-28.6-6.7-12-10-25.3-10-39.7s3.3-27.6,10-39.7c6.7-12.1,15.8-21.7,27.4-28.7,11.6-7,24.5-10.6,38.6-10.6s26.6,3.4,37.9,10.3c11.3,6.9,20.1,16.1,26.5,27.6,6.4,11.5,9.5,24,9.5,37.4s-.1,4.8-.4,10.3ZM1563.8,1104c-.5-7-3-13.6-7.5-19.7-4.5-6.1-10.4-10.9-17.7-14.5-7.3-3.6-15.1-5.4-23.4-5.4s-14.8,1.5-21.6,4.6-12.5,7.6-17.4,13.6c-4.8,6-8.2,13.1-10,21.4h97.5Z"/>
    <path class="st0" d="M1848.1,1059.1c9.6,12.3,14.4,30.4,14.4,54.3v81.1h-25.1v-80.7c0-16.7-3.3-29.2-10-37.3-6.7-8.2-16.2-12.2-28.5-12.2s-14.8,2.2-21.5,6.6c-6.7,4.4-12.1,10.5-16.1,18.4-4.1,7.9-6.1,16.7-6.1,26.6v78.6h-24.9v-80.7c0-16.8-3.3-29.3-10-37.4-6.7-8.1-16.1-12.2-28.5-12.2s-14.8,2.2-21.6,6.6c-6.7,4.4-12.2,10.5-16.2,18.4-4.1,7.9-6.1,16.7-6.1,26.6v78.6h-24.9v-149.6h23.8l.3,28.9c2.5-6.3,6.4-11.9,11.4-16.9,5.1-5,11.1-9,18-11.9,6.9-2.9,14.2-4.3,22.1-4.3,13.4,0,24.5,3.2,33.2,9.7,8.8,6.5,15.1,16,19,28.7,5.7-12.5,13.3-22,22.9-28.6,9.6-6.5,20.3-9.8,32.1-9.8,18.6,0,32.7,6.2,42.3,18.5Z"/>
  </g>
  <path class="st2" d="M550.1,398.2c0-1.1-.1-2.2-.2-3.3,0,1.1.1,2.2.2,3.3"/>
  <path class="st2" d="M931.1,751.5c-200.3-1.6-364.6-151.6-380.3-344.4,13,146.9,122.8,258.3,247.9,287.9,42.7,10.1,84.8,12.6,129.3,5.7,63.7-9.9,111.9-34.5,158.7-71.7l9.4-8.4c9.5-7.8,26.4-26.3,34.6-36,5.4-6.5,10.2-12.8,15.1-19.8,4.8-6.9,9.5-13.9,14-21.7,2.5-4.3,10-19.7,12.5-22.4l86.8,49.9c-3.1,7.2-20,30.6-25.6,37.4-2.5,3.1-4.6,5.9-6.9,8.7l-7.3,8.2c-4.8,5.6-9.9,11.3-15,16.3l-33.5,29.6c-11.1,9.3-23.6,17-36.8,25.6-23.2,15.1-56.7,29.9-86.6,38.9-37.7,11.4-67.4,14.6-108.5,16.2h-7.6Z"/>
  <path class="st2" d="M931.1,0c-200.3,1.6-364.6,151.6-380.3,344.4,13-146.9,122.8-258.3,247.9-287.9,42.7-10.1,84.8-12.6,129.3-5.7,63.7,9.9,111.9,34.5,158.7,71.7l9.4,8.4c9.5,7.8,26.4,26.3,34.6,36,5.4,6.5,10.2,12.8,15.1,19.8,4.8,6.9,9.5,13.9,14,21.7,2.5,4.2,10,19.7,12.5,22.4l86.8-49.8c-3.1-7.2-20-30.6-25.6-37.4-2.5-3-4.6-5.9-6.9-8.7l-7.3-8.2c-4.8-5.6-9.9-11.3-15-16.3l-33.5-29.6c-11.1-9.3-23.6-17-36.8-25.6-23.2-15.1-56.7-29.9-86.6-38.9-37.7-11.4-67.4-14.6-108.5-16.2h-7.6Z"/>
  <path class="st2" d="M910.2,689.1c-46.1,5.5-100.1-7.1-138.2-21.8-24-9.3-57.6-28.5-76.8-44.4-9.5-7.9-28.5-24.2-36.7-33.8l-14-16.5c-3.1-3.8-6.1-7.8-9-11.8-37.3-50.6-59.8-115.7-59.7-183.5,0-71.6,25.5-143.3,68.1-195.2,7.9-9.6,10-12.4,18.8-21.3,3.7-3.7,6.6-6.4,10.3-10.5,9.1-9.8,34.6-28.7,45.4-35.6,35.4-22.8,72.8-38.1,116.1-45.9,11.9-2.1,66.7-8.1,75.1-3.6-2.7,1.4-8.8,3.1-12,4.3-27.9,10.3-53.4,24.4-77.1,41.1-7,5-12.6,9.4-18.8,14.6l-17.7,15.8c-13.2,14.5-18.3,17.9-31.9,35.8-66,87-89.2,203-47.7,314.4,13.1,35.3,39,79.9,63.3,104.6,2.8,2.9,4.8,5.9,7.7,8.7l8.5,8.6c2.9,2.8,5.8,4.9,8.7,7.7,3,2.9,5.9,5.5,9.1,8,28.5,22.4,49.1,36.4,84.2,51,7.2,3,18,6.1,24.3,9.4"/>
  <path class="st1" d="M1188.4,481.1l89.8,53.1c22.1-47.9,34.4-101.2,34.4-157.4s-12.2-109-34.1-156.7l-90.1,53.2c21.9,65,23.7,137.1,0,207.8"/>
</svg>