<?xml version="1.0" encoding="UTF-8" standalone="no"?>
<svg
   id="Camada_1"
   data-name="Camada 1"
   viewBox="0 0 3636434.7 761029.74"
   version="1.1"
   width="3636434.5"
   height="761029.75"
   xmlns="http://www.w3.org/2000/svg"
   xmlns:svg="http://www.w3.org/2000/svg">
  <defs
     id="defs134">
    <style
       id="style132">
      .cls-1 {
        fill: #fff;
      }

      .cls-2 {
        fill: #76b72a;
      }

      .cls-3 {
        fill: #1c2544;
      }
    </style>
  </defs>
  <g
     id="g184"
     transform="translate(-619777.85,-96870.657)">
    <g
       id="g148">
      <path
         class="cls-2"
         d="m 341.83,315.3 c -50.54,0 -91.53,40.97 -91.53,91.53 0,18.2 5.34,35.14 14.49,49.39 5.08,7.89 11.31,14.94 18.48,20.93 7.19,5.97 15.28,10.89 24.07,14.45 10.65,4.33 22.28,6.74 34.49,6.74 12.21,0 28.52,-1.78 39.17,-6.11 0.53,8.05 0.24,11.49 0.24,18.4 0,21.76 -17.65,39.41 -39.41,39.41 -19.57,0 -35.76,-14.29 -38.82,-32.99 l -49.99,10.69 c 9.9,39.85 45.9,69.4 88.81,69.4 50.56,0 91.53,-40.99 91.53,-91.53 v -98.77 c 0,-50.56 -40.97,-91.53 -91.53,-91.53 z m 0,137.57 c -19.15,0 -35.56,-11.7 -42.5,-28.32 -2.29,-5.46 -3.54,-11.46 -3.54,-17.73 0,-25.44 20.62,-46.07 46.05,-46.07 25.43,0 46.05,20.62 46.05,46.07 0,6.27 -1.25,12.27 -3.54,17.73 -6.94,16.62 -23.36,28.32 -42.5,28.32 z"
         id="path138" />
      <path
         class="cls-2"
         d="m 501.39,319.84 h -1.38 c -25.64,0 -46.53,20.23 -47.32,45.69 V 493.8 h 48.7 v -86.97 c 0,-22.73 18.42,-41.15 41.15,-41.15 h 38.25 v -45.84 z"
         id="path140" />
      <path
         class="cls-2"
         d="m 724.43,319.84 v 91.93 c 0,22.69 -18.78,41.09 -41.94,41.09 -23.16,0 -41.94,-18.4 -41.94,-41.09 v -91.93 h -46.51 v 93.55 c 0,32.85 18.84,61.37 46.51,75.8 12.27,6.42 26.27,10.06 41.15,10.06 14.88,0 30.1,-3.97 42.73,-10.91 26.8,-14.69 44.91,-42.73 44.91,-74.95 v -93.55 z"
         id="path142" />
      <path
         class="cls-2"
         d="m 882.29,316.46 c -14.39,0 -27.99,3.38 -40.08,9.37 -20.31,10.06 -37.75,25.02 -44.41,48.92 -4.8,17.22 -2.58,56.27 -2.58,56.27 v 152.43 h 47 v -95.63 c 12.08,5.99 25.68,9.37 40.08,9.37 49.89,0 90.35,-40.46 90.35,-90.35 0,-49.89 -40.46,-90.37 -90.35,-90.37 z m 0,136.41 c -17.18,0 -32.16,-9.41 -40.08,-23.34 -3.81,-6.72 -5.99,-14.45 -5.99,-22.71 0,-8.26 2.19,-16.01 5.99,-22.73 7.91,-13.93 22.89,-23.34 40.08,-23.34 25.42,0 46.05,20.62 46.05,46.07 0,25.45 -20.62,46.05 -46.05,46.05 z"
         id="path144" />
      <path
         class="cls-2"
         d="m 1077.99,316.66 c -49.14,0 -89,39.83 -89,89 0,49.17 39.85,88.98 89,88.98 49.15,0 89,-39.83 89,-88.98 0,-49.15 -39.85,-89 -89,-89 z m -1.7,135.04 c -25.42,0 -46.05,-20.62 -46.05,-46.05 0,-25.43 20.62,-46.07 46.05,-46.07 25.43,0 46.07,20.62 46.07,46.07 0,25.45 -20.62,46.05 -46.07,46.05 z"
         id="path146" />
    </g>
    <g
       id="g172">
      <polygon
         class="cls-1"
         points="452.71,594.89 452.69,769.54 496.89,769.5 496.9,594.86 "
         id="polygon150" />
      <path
         class="cls-1"
         d="m 474.8,563.63 c 12.21,0 22.11,-9.9 22.11,-22.11 0,-12.21 -9.9,-22.11 -22.11,-22.11 -12.21,0 -21.89,9.71 -22.09,21.75 v 0.72 c 0.19,12.04 10,21.75 22.09,21.75 z"
         id="path152" />
      <g
         id="g158">
        <path
           class="cls-1"
           d="m 653.5,712.79 v -0.67 c 0,0.1 -0.02,0.22 -0.02,0.34 0,0.1 0.02,0.22 0.02,0.32 z"
           id="path154" />
        <path
           class="cls-1"
           d="m 733.62,651.24 c 0.93,-8.28 8.37,-15.43 17.22,-15.43 9.43,0 17.78,6.58 17.86,15.63 v -0.07 c 0,0 0,61.04 0,61.04 v 0.32 l -0.02,56.37 44.31,0.06 -0.02,-114.92 c 0.02,-0.28 0.02,-0.59 0.02,-0.87 0,-27.99 -18.58,-51.63 -44.07,-59.31 l -0.45,-0.12 0.42,0.11 c -0.06,-0.02 -0.12,-0.05 -0.19,-0.06 -5.61,-1.68 -12.51,-2.88 -18.66,-2.88 -5.73,0 -11.19,1.38 -16.46,2.82 V 594 c -25.62,7.53 -44.36,31.17 -44.46,59.2 0,0.08 -0.02,0.16 -0.02,0.24 v 59.23 c 0,0 -0.01,0.68 -0.01,0.68 v 0.37 c -1.35,8.21 -8.72,14.83 -17.63,14.82 -9.81,0 -17.89,-7.63 -17.97,-17.04 v -52.81 c 0.15,-1.73 0.22,-3.49 0.22,-5.26 v -0.12 c -0.04,-27.99 -18.68,-51.63 -44.25,-59.24 -5.61,-1.68 -11.54,-2.59 -17.69,-2.59 -5.73,0 -11.25,0.81 -16.52,2.25 -26.19,7.25 -45.42,31.21 -45.44,59.71 v 116.1 l 45.42,-0.04 V 656.03 c -0.06,-0.55 -0.09,-1.1 -0.09,-1.66 0,-0.04 0,-0.08 0,-0.12 0,-0.61 0.04,-1.19 0.1,-1.78 0.93,-8.28 8.22,-14.73 17.06,-14.73 9.43,0 17.08,7.31 17.16,16.35 0,0.06 0.02,0.1 0.02,0.16 0,0.04 -0.02,0.1 -0.02,0.16 v 59.24 c 0.04,25.38 15.56,46.23 37.44,55.76 2.21,0.97 4.47,1.8 6.8,2.51 5.67,1.72 11.7,2.65 17.93,2.65 6.23,0 11.9,-0.89 17.43,-2.51 2.55,-0.75 5.02,-1.64 7.41,-2.69 21.76,-9.55 37,-31.23 37.1,-56.51 v -57.7 c -0.06,-0.57 -0.08,-1.13 -0.08,-1.72 0,-0.08 0.01,-0.16 0.01,-0.24 0,-0.5 0.02,-1.01 0.07,-1.5 m -80.07,61.09 c 0,-0.1 -0.02,-0.22 -0.02,-0.32 0,-0.12 0.02,-0.24 0.02,-0.34 v 0.67 z"
           id="path156" />
      </g>
      <g
         id="g164">
        <path
           class="cls-1"
           d="m 1559.4,712.79 v -0.67 c 0,0.1 -0.02,0.22 -0.02,0.34 0,0.1 0.02,0.22 0.02,0.32 z"
           id="path160" />
        <path
           class="cls-1"
           d="m 1639.52,651.24 c 0.93,-8.28 8.37,-15.43 17.22,-15.43 9.43,0 17.78,6.58 17.86,15.63 v -0.07 c 0,0 0,61.04 0,61.04 v 0.32 l -0.02,56.37 44.31,0.06 -0.02,-114.92 c 0.02,-0.28 0.02,-0.59 0.02,-0.87 0,-27.99 -18.58,-51.63 -44.07,-59.31 l -0.45,-0.12 0.42,0.11 c -0.06,-0.02 -0.12,-0.05 -0.19,-0.06 -5.61,-1.68 -12.51,-2.88 -18.66,-2.88 -5.73,0 -11.19,1.38 -16.46,2.82 V 594 c -25.62,7.53 -44.36,31.17 -44.46,59.2 0,0.08 -0.02,0.16 -0.02,0.24 v 59.23 c 0,0 -0.01,0.68 -0.01,0.68 v 0.37 c -1.35,8.21 -8.72,14.83 -17.63,14.82 -9.81,0 -17.89,-7.63 -17.97,-17.04 v -52.81 c 0.15,-1.73 0.22,-3.49 0.22,-5.26 v -0.12 c -0.04,-27.99 -18.68,-51.63 -44.25,-59.24 -5.61,-1.68 -11.54,-2.59 -17.69,-2.59 -5.73,0 -11.25,0.81 -16.52,2.25 -26.19,7.25 -45.42,31.21 -45.44,59.71 v 116.1 l 45.42,-0.04 V 656.03 c -0.06,-0.55 -0.09,-1.1 -0.09,-1.66 0,-0.04 0,-0.08 0,-0.12 0,-0.61 0.04,-1.19 0.1,-1.78 0.93,-8.28 8.22,-14.73 17.06,-14.73 9.43,0 17.08,7.31 17.16,16.35 0,0.06 0.02,0.1 0.02,0.16 0,0.04 -0.02,0.1 -0.02,0.16 v 59.24 c 0.04,25.38 15.56,46.23 37.44,55.76 2.21,0.97 4.47,1.8 6.8,2.51 5.67,1.72 11.7,2.65 17.93,2.65 6.23,0 11.9,-0.89 17.43,-2.51 2.55,-0.75 5.02,-1.64 7.41,-2.69 21.76,-9.55 37,-31.23 37.1,-56.51 v -57.7 c -0.06,-0.57 -0.08,-1.13 -0.08,-1.72 0,-0.08 0.01,-0.16 0.01,-0.24 0,-0.5 0.02,-1.01 0.07,-1.5 m -80.07,61.09 c 0,-0.1 -0.02,-0.22 -0.02,-0.32 0,-0.12 0.02,-0.24 0.02,-0.34 v 0.67 z"
           id="path162" />
      </g>
      <path
         class="cls-1"
         d="m 1122.36,591.11 c -50.54,0 -91.53,40.97 -91.53,91.53 0,18.2 5.34,35.14 14.49,49.39 5.08,7.89 11.31,14.94 18.48,20.93 7.19,5.97 15.28,10.89 24.07,14.45 10.65,4.33 22.28,6.74 34.49,6.74 12.21,0 28.52,-1.78 39.17,-6.11 0.53,8.05 0.24,11.49 0.24,18.4 0,21.76 -17.65,39.41 -39.41,39.41 -19.57,0 -35.76,-14.29 -38.82,-32.99 l -49.99,10.69 c 9.9,39.85 45.9,69.4 88.81,69.4 50.56,0 91.53,-40.99 91.53,-91.53 v -98.77 c 0,-50.56 -40.97,-91.53 -91.53,-91.53 z m 0,137.57 c -19.15,0 -35.56,-11.7 -42.5,-28.32 -2.29,-5.46 -3.54,-11.46 -3.54,-17.73 0,-25.44 20.62,-46.07 46.05,-46.07 25.43,0 46.05,20.62 46.05,46.07 0,6.27 -1.25,12.27 -3.54,17.73 -6.94,16.62 -23.36,28.32 -42.5,28.32 z"
         id="path166" />
      <path
         class="cls-1"
         d="m 926.65,593.64 c -49.14,0 -89,39.83 -89,89 0,49.17 39.85,88.98 89,88.98 12.47,0 24.33,-2.59 35.12,-7.23 l 52.44,8.97 0.61,-78.79 0.18,-22.51 c -5.24,-44.16 -42.79,-78.41 -88.35,-78.41 z m -1.7,135.05 c -25.42,0 -46.05,-20.62 -46.05,-46.05 0,-25.43 20.62,-46.07 46.05,-46.07 25.43,0 46.07,20.62 46.07,46.07 0,25.45 -20.62,46.05 -46.07,46.05 z"
         id="path168" />
      <path
         class="cls-1"
         d="m 1410.13,704.78 c 1.8,-7.08 2.77,-14.51 2.77,-22.16 0,-7.25 -0.89,-14.29 -2.51,-21.05 -9.87,-41.28 -48.13,-71.54 -93.01,-68.95 -45.97,2.65 -82.96,40.41 -84.73,86.43 -1.98,51.42 39.11,93.74 90.08,93.74 30.28,0 57.04,-14.94 73.39,-37.83 l -34.81,-12.41 c -5.39,-1.92 -11.29,-1.47 -16.46,0.98 -6.74,3.2 -11.47,4.7 -22.55,4.6 -17.14,-0.16 -32.06,-9.41 -39.91,-23.36 h 127.74 z M 1281.5,661.57 c 7.57,-14.84 22.99,-25 40.8,-25 17.81,0 33.21,10.16 40.78,25 h -81.59 z"
         id="path170" />
    </g>
    <rect
       class="cls-2"
       x="1288.95"
       y="98.57"
       width="293.57001"
       height="442.53"
       rx="11.45"
       ry="11.45"
       id="rect174" />
    <path
       class="cls-3"
       d="m 1508.02,178.34 c 16.36,0 29.62,-13.26 29.62,-29.62 0,-16.36 -13.26,-29.62 -29.62,-29.62 -16.36,0 -29.33,13 -29.59,29.13 v 0.97 c 0.26,16.13 13.4,29.14 29.59,29.14 z"
       id="path176" />
    <path
       class="cls-3"
       d="m 1482.09,426.63 c -1.65,12.93 -6.48,19.71 -14.46,27.32 -8.65,8.24 -21.46,11.19 -34.19,10.56 -24.16,-1.19 -35.9,-18.74 -46.86,-35.64 l -51.54,9.56 c 10.94,44.07 50.55,79.02 98,79.02 55.43,0 102.43,-37.49 101.38,-102.07 h -52.11 c -0.02,1.28 0.36,6.74 -0.22,11.26 z"
       id="path178" />
    <path
       class="cls-3"
       d="m 1435.16,410.75 c 11.05,0 25.04,-1.28 36.44,-4.26 v -62.54 c -9.47,9.07 -22.29,14.67 -36.44,14.67 -21.96,0 -40.78,-13.42 -48.74,-32.47 -2.62,-6.27 -4.06,-13.14 -4.06,-20.33 0,-29.17 23.65,-52.83 52.8,-52.83 14.14,0 26.97,5.58 36.44,14.63 V 207.4 c -11.35,-4.21 -23.62,-6.54 -36.44,-6.54 -57.95,0 -104.95,46.98 -104.95,104.95 0,20.87 6.13,40.29 16.62,56.63 5.83,9.05 12.97,17.13 21.19,24 8.24,6.85 17.52,12.49 27.6,16.57 12.21,4.97 25.55,7.73 39.55,7.73"
       id="path180" />
    <polygon
       class="cls-3"
       points="1481.64,406.43 1534.43,406.39 1534.43,267.16 1534.43,205.18 1481.64,205.22 1481.64,206.51 1481.64,276.24 1481.64,326.89 "
       id="polygon182" />
  </g>
</svg>
