<svg width="138" height="121" viewBox="0 0 138 121" fill="none" xmlns="http://www.w3.org/2000/svg">
<rect x="20.0527" y="0.674103" width="117.326" height="117.326" rx="58.663" fill="#2CCAD6"/>
<path d="M130.715 73.1548H22.0518C35.9269 99.488 51.7456 116.275 76.8147 116.275C101.884 116.275 123.816 102.908 130.715 73.1548Z" fill="#1F1D1D" stroke="#1F1D1D" stroke-width="7.76167"/>
<line opacity="0.72" x1="34.9754" y1="91.9187" x2="124.969" y2="91.1813" stroke="white" stroke-width="1.70383" stroke-dasharray="9.37 9.37"/>
<g opacity="0.58" filter="url(#filter0_f_80_165)">
<ellipse cx="59.5656" cy="96.871" rx="46.1388" ry="3.01843" fill="black"/>
</g>
<path d="M37.8813 38.8203C61.5572 40.8605 85.2331 42.9007 109.626 45.0027C108.49 58.1875 107.354 71.3723 106.184 84.9566C103.516 84.8339 103.516 84.8339 100.795 84.7087C99.6257 86.6173 99.8512 89.0907 99.5767 91.3121C95.3944 90.9517 91.2121 90.5913 86.9031 90.22C86.1294 85.0225 86.1294 85.0225 87.0473 83.524C82.2271 83.1086 77.4069 82.6933 72.4405 82.2653C71.6132 84.4078 70.7859 86.5503 69.9335 88.7577C62.2069 88.0919 54.4803 87.4261 46.5196 86.7401C46.7676 81.3514 46.7676 81.3514 47.5231 80.1181C46.5307 80.0326 45.5383 79.9471 44.5158 79.859C44.1793 80.638 44.1165 81.3986 44.0263 82.2336C44.0007 82.4601 44.0007 82.4601 43.9746 82.6912C43.9113 83.2544 43.8497 83.8179 43.788 84.3813C43.6481 85.6412 43.5083 86.9012 43.3643 88.1994C39.8909 87.9001 36.4174 87.6008 32.8388 87.2924C33.2275 82.7815 33.2275 82.7815 33.4103 81.4447C33.4364 81.2264 33.4364 81.2264 33.4631 81.0038C33.5991 80.0321 33.8959 79.3605 34.4569 78.5594C34.1086 78.458 33.7603 78.3565 33.4014 78.252C33.0556 81.4358 32.7099 84.6195 32.3536 87.8998C31.9992 87.8692 31.6448 87.8387 31.2796 87.8072C31.2678 87.6796 31.2559 87.552 31.2438 87.4206C31.1885 86.8399 31.1297 86.2596 31.0707 85.6793C31.0522 85.4785 31.0337 85.2778 31.0145 85.0709C30.9842 84.7796 30.9842 84.7796 30.9533 84.4824C30.9358 84.3041 30.9183 84.1258 30.9002 83.9421C30.7757 83.3685 30.5496 83.004 30.2202 82.5223C30.0719 82.1967 29.9289 81.8687 29.791 81.5386C28.8611 79.4524 27.389 77.8364 25.2233 77.0021C23.5015 76.5415 21.6357 76.2293 19.9707 77C19.4385 77.3081 19.4385 77.3081 18.9539 77.6563C18.8059 77.7582 18.6579 77.86 18.5055 77.965C16.5166 79.49 15.6108 81.4833 14.7673 83.778C13.9557 85.9704 13.9557 85.9704 12.8947 86.6017C10.7475 87.4293 7.46583 86.9145 5.4062 86.0215C5.21934 85.9303 5.03249 85.8392 4.83997 85.7453C4.65034 85.6575 4.65034 85.6575 4.45688 85.568C4.03242 85.3716 3.61052 85.1706 3.18932 84.9674C2.98986 84.8721 2.98986 84.8721 2.78636 84.7749C1.99216 84.3748 1.4448 83.984 0.943757 83.2455C0.741486 82.4036 0.826484 81.6327 0.899229 80.7801C0.910582 80.6176 0.921934 80.4551 0.933629 80.2877C1.04615 78.9407 1.38448 78.076 2.33978 77.0902C2.28785 76.9677 2.23591 76.8452 2.18241 76.7191C2.11662 76.5502 2.05083 76.3813 1.98305 76.2074C1.88372 75.9616 1.88372 75.9616 1.78239 75.7108C1.38801 73.8798 2.00785 71.7793 2.31925 69.9503C2.37519 69.6176 2.42943 69.2847 2.48204 68.9514C2.55881 68.4656 2.64061 67.9808 2.72359 67.496C2.74611 67.3475 2.76863 67.1991 2.79184 67.0462C2.91239 66.374 3.04653 65.9495 3.4945 65.4276C4.10962 65.0641 4.63884 64.9612 5.33899 64.8278C6.197 64.5669 6.58589 64.4162 7.10192 63.6724C7.42773 62.8887 7.67589 62.1029 7.89454 61.2847C7.98088 60.9916 8.0673 60.6985 8.15379 60.4054C8.86059 57.8926 8.96331 55.4707 8.82124 52.869C8.78243 51.8002 8.7915 50.887 9.33205 49.9393C10.0604 49.2649 10.7494 48.9141 11.7125 48.6837C12.068 48.7089 12.068 48.7089 12.4308 48.7346C13.6503 48.5281 14.1098 47.7581 14.8488 46.817C15.1194 46.4844 15.3903 46.1522 15.6617 45.8203C15.7793 45.672 15.8969 45.5237 16.018 45.371C16.7994 44.4614 17.5777 44.1739 18.7168 43.8367C18.8823 43.7862 19.0477 43.7357 19.2182 43.6836C19.7588 43.5189 20.3001 43.3567 20.8415 43.1948C21.5909 42.969 22.3401 42.7426 23.0893 42.5161C23.2764 42.4598 23.4634 42.4034 23.6561 42.3454C24.8048 41.9979 25.9459 41.6331 27.0834 41.2508C27.3513 41.1623 27.6192 41.0738 27.8952 40.9826C28.3867 40.8194 28.8769 40.6522 29.3654 40.4804C31.0447 39.9309 32.4774 39.8564 34.1069 40.6252C34.222 40.7177 34.3371 40.8102 34.4556 40.9055C34.502 41.4765 34.5052 41.9641 34.4645 42.5293C34.3642 43.5809 34.3642 43.5809 34.5706 44.5942C34.6619 44.4339 34.7532 44.2736 34.8474 44.1085C35.1861 43.5141 35.5248 42.9198 35.8636 42.3256C36.0103 42.0683 36.157 41.811 36.3036 41.5537C36.5142 41.184 36.725 40.8143 36.9358 40.4447C37.0626 40.2221 37.1894 39.9996 37.3201 39.7704C37.5032 39.4514 37.6892 39.1339 37.8813 38.8203Z" fill="#378247"/>
<path d="M37.8813 38.8203C37.9522 38.8264 38.0231 38.8325 38.0961 38.8388C36.9661 51.9527 35.836 65.0666 34.6717 78.5779C37.9325 78.8589 41.1932 79.1399 44.5528 79.4294C44.4514 79.7777 44.3499 80.126 44.2454 80.4849C44.1619 81.0821 44.0876 81.6763 44.0227 82.2755C43.9971 82.5014 43.9971 82.5014 43.9711 82.7318C43.9083 83.2905 43.8471 83.8493 43.7856 84.4081C43.6466 85.6592 43.5075 86.9103 43.3643 88.1994C39.8909 87.9001 36.4174 87.6008 32.8388 87.2924C33.2275 82.7815 33.2275 82.7815 33.4103 81.4447C33.4364 81.2264 33.4364 81.2264 33.4631 81.0038C33.5991 80.0321 33.8959 79.3605 34.4569 78.5594C34.1086 78.458 33.7603 78.3565 33.4014 78.252C33.0556 81.4358 32.7099 84.6195 32.3536 87.8998C31.9992 87.8692 31.6448 87.8387 31.2796 87.8072C31.2678 87.6796 31.256 87.552 31.2438 87.4206C31.1885 86.8399 31.1297 86.2596 31.0707 85.6793C31.0522 85.4785 31.0337 85.2778 31.0145 85.0709C30.9842 84.7796 30.9842 84.7796 30.9533 84.4824C30.9358 84.3041 30.9183 84.1258 30.9002 83.9421C30.7757 83.3685 30.5496 83.004 30.2202 82.5223C30.072 82.1967 29.929 81.8687 29.791 81.5386C28.8611 79.4524 27.389 77.8364 25.2233 77.0021C23.5015 76.5415 21.6357 76.2293 19.9707 77C19.4385 77.3081 19.4385 77.3081 18.9539 77.6563C18.8059 77.7582 18.6579 77.86 18.5055 77.965C16.5166 79.49 15.6108 81.4833 14.7673 83.778C13.9557 85.9704 13.9557 85.9704 12.8947 86.6017C10.7475 87.4293 7.46583 86.9145 5.4062 86.0215C5.21934 85.9303 5.03249 85.8392 4.83997 85.7453C4.65034 85.6575 4.65034 85.6575 4.45688 85.568C4.03242 85.3716 3.61052 85.1706 3.18932 84.9674C2.98986 84.8721 2.98986 84.8721 2.78636 84.7749C1.99216 84.3748 1.4448 83.984 0.943757 83.2455C0.741486 82.4036 0.826484 81.6327 0.899229 80.7801C0.910582 80.6176 0.921934 80.4551 0.933629 80.2877C1.04615 78.9407 1.38448 78.076 2.33978 77.0902C2.28785 76.9677 2.23591 76.8452 2.18241 76.7191C2.11662 76.5502 2.05083 76.3813 1.98305 76.2074C1.88372 75.9616 1.88372 75.9616 1.78239 75.7108C1.38801 73.8798 2.00785 71.7793 2.31925 69.9503C2.37519 69.6176 2.42943 69.2847 2.48204 68.9514C2.55881 68.4656 2.64061 67.9808 2.72359 67.496C2.74611 67.3475 2.76863 67.1991 2.79184 67.0462C2.91239 66.374 3.04653 65.9495 3.4945 65.4276C4.10962 65.0641 4.63884 64.9612 5.33899 64.8278C6.197 64.5669 6.58589 64.4162 7.10192 63.6724C7.42773 62.8887 7.67589 62.1029 7.89454 61.2847C7.98088 60.9916 8.0673 60.6985 8.15379 60.4054C8.86059 57.8926 8.96331 55.4707 8.82124 52.869C8.78243 51.8002 8.7915 50.887 9.33205 49.9393C10.0604 49.2649 10.7494 48.9141 11.7125 48.6837C12.068 48.7089 12.068 48.7089 12.4308 48.7346C13.6503 48.5281 14.1098 47.7581 14.8488 46.817C15.1194 46.4844 15.3903 46.1522 15.6617 45.8203C15.7793 45.672 15.8969 45.5237 16.018 45.371C16.7994 44.4614 17.5777 44.1739 18.7168 43.8367C18.8823 43.7862 19.0477 43.7357 19.2182 43.6836C19.7588 43.5189 20.3001 43.3567 20.8415 43.1948C21.5909 42.969 22.3401 42.7426 23.0893 42.5161C23.2764 42.4598 23.4634 42.4034 23.6561 42.3454C24.8048 41.9979 25.9459 41.6331 27.0834 41.2508C27.3513 41.1623 27.6192 41.0738 27.8952 40.9826C28.3867 40.8194 28.8769 40.6522 29.3654 40.4804C31.0447 39.9309 32.4774 39.8564 34.1069 40.6252C34.222 40.7177 34.3371 40.8102 34.4556 40.9055C34.502 41.4765 34.5052 41.9641 34.4645 42.5293C34.3642 43.5809 34.3642 43.5809 34.5706 44.5942C34.6619 44.4339 34.7532 44.2736 34.8474 44.1085C35.1861 43.5141 35.5248 42.9198 35.8636 42.3256C36.0103 42.0683 36.157 41.811 36.3036 41.5537C36.5142 41.184 36.725 40.8143 36.9358 40.4447C37.0626 40.2221 37.1894 39.9996 37.3201 39.7704C37.5032 39.4514 37.6892 39.1339 37.8813 38.8203Z" fill="#368364"/>
<path d="M34.4555 40.9055C34.4318 41.6112 34.4066 42.3169 34.3813 43.0225C34.3714 43.3169 34.3714 43.3169 34.3613 43.6172C34.3253 44.6026 34.2726 45.5805 34.1777 46.5621C34.0406 48.0656 34.0301 49.5698 34.0117 51.0786C34.0075 51.3698 34.0033 51.6609 33.999 51.952C33.9888 52.6561 33.9795 53.3601 33.9708 54.0642C32.8441 53.9725 31.7176 53.8793 30.5912 53.7848C30.2097 53.753 29.8282 53.7216 29.4467 53.6906C27.4 53.5242 25.3699 53.3271 23.34 53.0153C21.5889 52.7495 19.8314 52.558 18.0684 52.3898C17.6829 52.3518 17.2976 52.3111 16.9126 52.268C16.347 52.2048 15.7811 52.1501 15.2145 52.0971C15.043 52.0763 14.8714 52.0555 14.6947 52.034C14.1497 51.9749 14.1497 51.9749 13.3679 52.0724C12.551 52.8642 12.1223 53.7767 11.7107 54.8239C11.6529 54.968 11.5951 55.1122 11.5355 55.2607C10.7192 57.3523 10.1802 59.5173 9.724 61.7128C9.44045 61.6884 9.15691 61.6639 8.86477 61.6388C8.85201 60.3443 8.84032 59.0497 8.8296 57.7552C8.82581 57.3154 8.82173 56.8755 8.81736 56.4357C8.81109 55.8013 8.80589 55.167 8.80087 54.5326C8.79872 54.3378 8.79657 54.143 8.79436 53.9423C8.77361 50.9181 8.77361 50.9181 9.33194 49.9393C10.0602 49.2648 10.7493 48.914 11.7123 48.6837C11.9494 48.7005 12.1865 48.7173 12.4307 48.7346C13.6502 48.5281 14.1097 47.7581 14.8487 46.817C15.1193 46.4844 15.3902 46.1522 15.6616 45.8203C15.838 45.5978 15.838 45.5978 16.0179 45.3709C16.7993 44.4614 17.5776 44.1739 18.7167 43.8367C18.8822 43.7862 19.0476 43.7356 19.218 43.6836C19.7586 43.5189 20.2999 43.3567 20.8414 43.1947C21.5908 42.969 22.34 42.7425 23.0892 42.5161C23.2763 42.4597 23.4633 42.4034 23.656 42.3454C24.8047 41.9979 25.9458 41.6331 27.0833 41.2508C27.3512 41.1623 27.6191 41.0738 27.8951 40.9826C28.3866 40.8193 28.8768 40.6522 29.3653 40.4804C31.1657 39.8912 32.8302 39.8034 34.4555 40.9055Z" fill="#106330"/>
<path d="M14.8215 52.1676C14.9714 52.1815 15.1214 52.1954 15.2759 52.2097C15.515 52.2312 15.515 52.2312 15.7589 52.2531C18.2605 52.4887 20.7518 52.8222 23.244 53.1398C23.7637 53.2055 24.2834 53.2711 24.8031 53.3367C26.0629 53.4958 27.3226 53.6557 28.5822 53.8162C28.4157 55.0875 28.2485 56.3587 28.0805 57.6297C28.0236 58.0614 27.9669 58.493 27.9104 58.9247C27.8288 59.5484 27.7463 60.1719 27.6638 60.7955C27.6267 61.0808 27.6267 61.0808 27.5888 61.3719C27.4201 62.6389 27.2047 63.8916 26.9567 65.1454C25.0018 65.0622 23.0468 64.9784 21.0919 64.8939C20.1839 64.8547 19.276 64.8157 18.368 64.7771C17.49 64.7398 16.6121 64.702 15.7342 64.6638C15.401 64.6494 15.0678 64.6352 14.7346 64.6212C12.9147 64.5444 11.1004 64.4514 9.28711 64.272C10.0835 61.7745 10.9497 59.3083 11.8626 56.8512C12.0754 56.2779 12.2868 55.704 12.498 55.1301C12.6332 54.7648 12.7685 54.3994 12.9039 54.0341C12.9669 53.8628 13.0299 53.6916 13.0948 53.5151C13.6341 52.0691 13.6341 52.0691 14.8215 52.1676Z" fill="#AFDCE6"/>
<path d="M37.8809 38.8203C37.9518 38.8264 38.0227 38.8325 38.0957 38.8388C36.9657 51.9527 35.8356 65.0666 34.6713 78.5779C37.9321 78.8588 41.1929 79.1398 44.5524 79.4293C44.451 79.7777 44.3496 80.126 44.2451 80.4849C44.1615 81.0821 44.0872 81.6762 44.0223 82.2755C44.0053 82.4261 43.9883 82.5767 43.9707 82.7318C43.9079 83.2905 43.8467 83.8493 43.7853 84.4081C43.6462 85.6592 43.5072 86.9103 43.3639 88.1994C39.8905 87.9 36.4171 87.6007 32.8384 87.2923C33.2271 82.7814 33.2271 82.7814 33.4099 81.4447C33.4273 81.2992 33.4448 81.1537 33.4627 81.0037C33.5988 80.0321 33.8955 79.3604 34.4565 78.5593C34.2074 78.4977 34.2074 78.4977 33.9533 78.4348C33.401 78.252 33.401 78.252 33.0084 77.7854C32.9694 77.3918 32.9694 77.3918 32.9838 76.9117C32.9883 76.7297 32.9928 76.5476 32.9974 76.36C33.0044 76.1599 33.0114 75.9598 33.0186 75.7536C33.0244 75.5428 33.0302 75.3321 33.0361 75.115C33.0559 74.4134 33.0785 73.712 33.1012 73.0106C33.1156 72.5203 33.1299 72.03 33.144 71.5397C33.1819 70.2422 33.2222 68.9449 33.263 67.6475C33.2954 66.604 33.3261 65.5605 33.3566 64.5169C33.3935 63.2561 33.4313 61.9953 33.4693 60.7345C33.4763 60.5004 33.4833 60.2663 33.4906 60.0251C33.5724 57.3271 33.6669 54.6305 33.8024 51.9346C33.8785 50.3486 33.8784 48.7692 33.8536 47.1819C33.8511 45.2584 34.8758 43.786 35.8448 42.2019C36.0138 41.9184 36.1824 41.6347 36.3505 41.3507C36.854 40.5031 37.366 39.6609 37.8809 38.8203Z" fill="#11460C"/>
<path d="M83.5365 84.8715C84.7707 86.0621 85.5207 87.7671 85.6699 89.4645C85.702 91.7302 84.9794 93.7297 83.3931 95.3741C81.838 96.6484 80.0082 97.1976 78.0198 97.0962C75.8587 96.8562 74.3474 96.0565 72.9077 94.424C71.5796 92.7126 71.3527 90.8421 71.5919 88.7299C71.9278 87.0187 72.8686 85.4841 74.2073 84.3652C77.3241 82.4389 80.6551 82.5618 83.5365 84.8715Z" fill="#040C4A"/>
<path d="M27.5931 79.7396C28.8234 80.8588 29.5922 82.5476 29.7644 84.1871C29.798 86.263 29.4311 88.021 28.1069 89.6682C26.5563 91.2294 24.8298 92.051 22.6251 92.0902C20.6174 91.9812 18.8785 91.2092 17.4277 89.8096C16.0809 88.2231 15.5333 86.5313 15.6898 84.462C15.9205 82.2425 16.6472 80.8135 18.3148 79.3281C21.2353 77.2109 24.8127 77.6377 27.5931 79.7396Z" fill="#070449"/>
<path d="M8.76894 57.7352C9.07895 58.404 9.15888 58.8747 9.09791 59.6072C9.07492 59.8837 9.07492 59.8837 9.05147 60.1658C9.03336 60.3565 9.01524 60.5473 8.99658 60.7439C8.982 60.9325 8.96743 61.121 8.95241 61.3153C8.85229 62.4379 8.62412 63.3436 8.19512 64.3942C7.88774 65.9487 7.81154 67.2078 8.70265 68.5496C8.877 68.7939 8.877 68.7939 9.05488 69.0432C9.62735 69.8591 10.0142 70.4184 10.146 71.4195C9.9531 72.5103 9.31 73.4514 8.74251 74.3848C7.45414 76.8497 7.48121 79.8201 7.30632 82.5348C7.27217 83.0515 7.23417 83.5678 7.19577 84.0843C7.18682 84.2428 7.17786 84.4014 7.16863 84.5648C7.13492 85.0069 7.13492 85.0069 7.00702 85.7155C6.32558 86.0896 6.32558 86.0896 5.64038 85.9875C4.78725 85.7291 4.03251 85.4029 3.24119 84.9988C3.10609 84.9335 2.97099 84.8681 2.83179 84.8008C2.0228 84.3929 1.45289 83.9997 0.944243 83.2455C0.741972 82.4036 0.82697 81.6327 0.899716 80.7801C0.916744 80.5363 0.916744 80.5363 0.934116 80.2877C1.04664 78.9406 1.38496 78.076 2.34027 77.0901C2.28833 76.9677 2.2364 76.8452 2.1829 76.719C2.11711 76.5502 2.05132 76.3813 1.98354 76.2073C1.88421 75.9615 1.88421 75.9615 1.78288 75.7107C1.3885 73.8798 2.00834 71.7793 2.31974 69.9503C2.37567 69.6176 2.42992 69.2846 2.48253 68.9514C2.5593 68.4655 2.6411 67.9808 2.72407 67.4959C2.7466 67.3475 2.76912 67.1991 2.79233 67.0462C2.91292 66.3737 3.04762 65.9489 3.49499 65.4262C4.11236 65.0629 4.63598 64.9734 5.33935 64.8489C6.26009 64.5723 6.59882 64.4176 7.10294 63.5853C7.44632 62.7277 7.67236 61.8411 7.8971 60.9467C7.98399 60.6357 8.0719 60.325 8.16085 60.0146C8.37539 59.2577 8.57584 58.4979 8.76894 57.7352Z" fill="#116B64"/>
<path d="M33.7011 79.7926C37.0976 80.1567 40.494 80.5208 43.9933 80.8959C43.7856 83.3061 43.5779 85.7162 43.364 88.1993C39.8905 87.9 36.4171 87.6007 32.8385 87.2923C33.0545 84.7853 33.3382 82.2827 33.7011 79.7926Z" fill="#368364"/>
<path d="M48.4292 79.7101C48.6094 79.7261 48.7895 79.742 48.9752 79.7584C49.1818 79.7756 49.3885 79.7928 49.6015 79.8106C49.8288 79.8317 50.0561 79.8528 50.2903 79.8746C50.5292 79.8951 50.7681 79.9157 51.0142 79.9368C51.8069 80.0054 52.5993 80.0771 53.3917 80.1487C53.94 80.1968 54.4884 80.2447 55.0367 80.2924C56.3345 80.4057 57.632 80.5209 58.9295 80.637C60.4064 80.7692 61.8836 80.8988 63.3608 81.0283C66.3999 81.2947 69.4387 81.5642 72.4773 81.8357C72.2927 82.3196 72.1082 82.8036 71.9181 83.3023C63.6953 82.5937 55.4725 81.8851 47.0006 81.1551C47.7156 79.735 47.7156 79.735 48.4292 79.7101Z" fill="#024930"/>
<path d="M88.0469 83.1513C88.2829 83.1722 88.519 83.193 88.7622 83.2144C89.0289 83.2374 89.2955 83.2604 89.5702 83.2841C89.8632 83.3105 90.1563 83.3369 90.4493 83.3633C90.7476 83.3894 91.0458 83.4154 91.3441 83.4413C92.1304 83.5099 92.9167 83.5798 93.7029 83.6499C94.5047 83.7212 95.3066 83.7913 96.1084 83.8615C97.6828 83.9995 99.257 84.1388 100.831 84.279C100.32 85.5063 100.32 85.5063 100.057 85.7271C99.7654 85.7347 99.4732 85.7283 99.1816 85.716C98.9955 85.7086 98.8095 85.7012 98.6178 85.6936C98.4141 85.6844 98.2105 85.6752 98.0008 85.6657C97.7901 85.6569 97.5795 85.648 97.3624 85.6389C96.9131 85.6198 96.4638 85.6001 96.0145 85.58C95.3408 85.55 94.667 85.5219 93.9931 85.4941C91.4124 85.384 88.8437 85.2213 86.2726 84.9721C86.4351 84.7018 86.5982 84.4319 86.7617 84.1622C86.8524 84.0118 86.9432 83.8615 87.0368 83.7066C87.4084 83.1275 87.4084 83.1275 88.0469 83.1513Z" fill="#005339"/>
<path d="M27.0122 64.501C27.0831 64.5071 27.154 64.5132 27.227 64.5195C27.1469 65.7603 27.0596 67.0003 26.9659 68.2401C26.9349 68.6619 26.906 69.0839 26.879 69.5059C26.8398 70.1128 26.7937 70.7188 26.7462 71.3251C26.7356 71.5138 26.7249 71.7025 26.7139 71.8969C26.6015 73.2083 26.6015 73.2083 25.9092 73.8218C24.7643 74.3492 23.7517 74.4963 22.4966 74.5261C22.2525 74.5322 22.2525 74.5322 22.0035 74.5384C19.7128 74.5773 17.4935 74.3343 15.2469 73.9014C15.0854 73.8706 14.9239 73.8397 14.7575 73.8079C13.9104 73.634 13.1813 73.4174 12.4317 72.9826C12.45 72.7699 12.4683 72.5573 12.4872 72.3382C12.7282 72.3902 12.9692 72.4422 13.2175 72.4958C13.5405 72.5655 13.8637 72.6336 14.1872 72.7011C14.4645 72.7623 14.7418 72.8236 15.0275 72.8867C16.3233 73.1431 17.6299 73.254 18.9446 73.368C19.311 73.4035 19.311 73.4035 19.6848 73.4398C22.6342 73.7626 22.6342 73.7626 25.4126 73.0192C25.5375 72.4175 25.6186 71.857 25.6759 71.2481C25.695 71.0726 25.714 70.8972 25.7335 70.7164C25.7937 70.1549 25.8494 69.5931 25.905 69.0311C25.945 68.6508 25.9852 68.2705 26.0257 67.8902C26.1246 66.9571 26.2194 66.0236 26.3123 65.0899C26.5249 65.1082 26.7376 65.1265 26.9567 65.1454C26.975 64.9327 26.9933 64.7201 27.0122 64.501Z" fill="#045000"/>
<path d="M83.5365 84.8715C84.7707 86.0621 85.5207 87.7671 85.6699 89.4645C85.702 91.7302 84.9794 93.7297 83.3931 95.3741C81.838 96.6484 80.0082 97.1976 78.0198 97.0962C75.8587 96.8562 74.3474 96.0565 72.9077 94.424C71.5796 92.7126 71.3527 90.8421 71.5919 88.7299C71.9278 87.0187 72.8686 85.4841 74.2073 84.3652C77.3241 82.4389 80.6551 82.5618 83.5365 84.8715ZM73.4518 85.5985C72.0216 87.3372 71.7949 89.4128 71.9283 91.6152C72.2957 93.3309 73.6617 94.9243 75.0498 95.9341C76.6568 96.8086 78.7454 96.9713 80.5242 96.6197C82.4343 95.9324 83.8449 94.6668 84.7293 92.8459C85.4403 91.1311 85.4259 89.1458 84.7625 87.4387C84.11 85.9684 83.0429 84.665 81.5887 83.9327C78.5503 82.8085 75.6919 83.2498 73.4518 85.5985Z" fill="#00335C"/>
<path d="M27.5931 79.7396C28.8234 80.8588 29.5922 82.5476 29.7644 84.1871C29.798 86.263 29.4311 88.021 28.1069 89.6682C26.5563 91.2294 24.8298 92.051 22.6251 92.0902C20.6174 91.9812 18.8785 91.2092 17.4277 89.8096C16.0809 88.2231 15.5333 86.5313 15.6898 84.462C15.9205 82.2425 16.6472 80.8135 18.3148 79.3281C21.2353 77.2109 24.8127 77.6377 27.5931 79.7396ZM17.8729 80.1598C16.5303 81.9117 15.837 83.3864 15.888 85.6152C16.2976 87.9054 17.3566 89.5295 19.2348 90.8808C20.8901 91.8124 22.9631 91.9279 24.7848 91.4538C26.6543 90.748 27.8932 89.6404 28.8749 87.8975C29.6132 86.1274 29.6757 84.3503 29.0422 82.5425C28.1381 80.6053 26.8549 79.3241 24.8699 78.5185C22.5396 77.7553 19.6 78.3406 17.8729 80.1598Z" fill="#00335C"/>
<defs>
<filter id="filter0_f_80_165" x="11.7019" y="92.1278" width="95.727" height="9.4865" filterUnits="userSpaceOnUse" color-interpolation-filters="sRGB">
<feFlood flood-opacity="0" result="BackgroundImageFix"/>
<feBlend mode="normal" in="SourceGraphic" in2="BackgroundImageFix" result="shape"/>
<feGaussianBlur stdDeviation="0.862408" result="effect1_foregroundBlur_80_165"/>
</filter>
</defs>
</svg>
